<?xml version="1.0" encoding="UTF-8"?>
<svg id="Layer_1" xmlns="http://www.w3.org/2000/svg" version="1.1" viewBox="0 0 512 512">
  <!-- Generator: Adobe Illustrator 29.2.1, SVG Export Plug-In . SVG Version: 2.1.0 Build 116)  -->
  <defs>
    <style>
      .st0 {
        fill: #fff;
      }
    </style>
  </defs>
  <path class="st0" d="M236,489h40c4.1,0,7.5-3.4,7.5-7.5s-3.4-7.5-7.5-7.5h-40c-4.1,0-7.5,3.4-7.5,7.5s3.4,7.5,7.5,7.5Z"/>
  <path class="st0" d="M489.5,114.5c-9.8,0-18.1,6.3-21.2,15h-62.8V37.5C405.5,16.8,388.7,0,368,0h-224C123.3,0,106.5,16.8,106.5,37.5v26.2c0,4.1,3.4,7.5,7.5,7.5s7.5-3.4,7.5-7.5v-14.7h269v80.5h-52c-4.1,0-7.5,3.4-7.5,7.5v32.8l-68.1-48.8c-4.1-2.9-9.7-2.9-13.8,0l-61.6,44.1v-24.9c8.7-3.1,15-11.4,15-21.2s-10.1-22.5-22.5-22.5-22.5,10.1-22.5,22.5,6.3,18.1,15,21.2v35.7l-32,22.9c-2.5,1.8-4,4.7-4,7.7v25.2c0,5.2,4.3,9.5,9.5,9.5h21.8v105.1c0,4.1,3.4,7.5,7.5,7.5h73.2v53.7h-127V95.7c0-4.1-3.4-7.5-7.5-7.5s-7.5,3.4-7.5,7.5v311.8h-62.8c-3.1-8.7-11.4-15-21.2-15S0,402.6,0,415s10.1,22.5,22.5,22.5,18.1-6.3,21.2-15h62.8v52c0,20.7,16.8,37.5,37.5,37.5h224c20.7,0,37.5-16.8,37.5-37.5v-26.8c0-4.1-3.4-7.5-7.5-7.5s-7.5,3.4-7.5,7.5v3.3H121.5v-28.5h134.5c4.1,0,7.5-3.4,7.5-7.5v-61.2h73.2c4.1,0,7.5-3.4,7.5-7.5v-105.1h21.8c5.2,0,9.5-4.3,9.5-9.5v-25.2c0-3.1-1.5-5.9-4-7.7l-25.5-18.3v-36h44.5v271.5c0,4.1,3.4,7.5,7.5,7.5s7.5-3.4,7.5-7.5V144.5h62.8c3.1,8.7,11.4,15,21.2,15s22.5-10.1,22.5-22.5-10.1-22.5-22.5-22.5ZM368,15c.7,0,1.3,0,1.9,0,0,0,.1,0,.2,0,.6,0,1.2.1,1.8.2,0,0,.2,0,.3,0,.6.1,1.1.2,1.7.4,0,0,.2,0,.3,0,.6.2,1.1.3,1.7.5,0,0,.1,0,.2,0,.6.2,1.1.5,1.7.7,0,0,0,0,0,0,.5.3,1.1.6,1.6.9,0,0,.1,0,.2,0,.5.3,1,.6,1.5,1,0,0,.1.1.2.2.5.3.9.7,1.3,1.1,0,0,.1.1.2.2.4.4.8.8,1.2,1.2,0,0,.1.1.2.2.4.4.8.9,1.2,1.3,0,0,0,0,0,0,.4.5.7.9,1.1,1.4,0,0,0,0,0,.1.3.5.6,1,.9,1.5,0,0,0,.2.1.2.3.5.5,1,.8,1.5,0,0,0,.2.1.3.2.5.4,1.1.6,1.6,0,0,0,.2,0,.3.2.6.4,1.1.5,1.7,0,0,0,.1,0,.2.1.6.3,1.2.4,1.8,0,0,0,0,0,0H121.8s0,0,0,0c0-.6.2-1.2.4-1.8,0,0,0,0,0-.1.1-.6.3-1.2.5-1.7,0,0,0-.2,0-.2.2-.5.4-1.1.6-1.6,0,0,0-.2.1-.3.2-.5.5-1,.8-1.5v-.2c.4-.5.7-1,1.1-1.5,0,0,0,0,0-.1.3-.5.7-1,1.1-1.4,0,0,0,0,0,0,.4-.5.8-.9,1.2-1.3,0,0,.1-.1.2-.2.4-.4.8-.8,1.2-1.2,0,0,.1-.1.2-.2.4-.4.9-.7,1.3-1.1,0,0,.1-.1.2-.2.5-.3,1-.7,1.5-1,0,0,0,0,.1,0,.5-.3,1-.6,1.6-.9,0,0,0,0,0,0,.5-.3,1.1-.5,1.7-.7,0,0,.1,0,.2,0,.5-.2,1.1-.4,1.7-.5,0,0,.2,0,.3,0,.6-.2,1.1-.3,1.7-.4,0,0,.2,0,.3,0,.6-.1,1.2-.2,1.8-.2,0,0,.1,0,.2,0,.6,0,1.3,0,1.9,0h224ZM180,111.5c4.1,0,7.5,3.4,7.5,7.5s-3.4,7.5-7.5,7.5-7.5-3.4-7.5-7.5,3.4-7.5,7.5-7.5ZM22.5,422.5c-4.1,0-7.5-3.4-7.5-7.5s3.4-7.5,7.5-7.5,7.5,3.4,7.5,7.5-3.4,7.5-7.5,7.5ZM390.5,466v8.5c0,12.4-10.1,22.5-22.5,22.5h-224c-12.4,0-22.5-10.1-22.5-22.5v-8.5h269ZM360.5,226.2h-21.8c-5.2,0-9.5,4.3-9.5,9.5v73.1h-8.9c-4.1,0-7.5,3.4-7.5,7.5s3.4,7.5,7.5,7.5h8.9v15h-146.4v-15h105.5c4.1,0,7.5-3.4,7.5-7.5s-3.4-7.5-7.5-7.5h-105.5v-73.1c0-5.2-4.3-9.5-9.5-9.5h-21.8v-16.9l104.5-74.8,78.2,56s0,0,.1,0l26.2,18.7v16.9ZM489.5,144.5c-4.1,0-7.5-3.4-7.5-7.5s3.4-7.5,7.5-7.5,7.5,3.4,7.5,7.5-3.4,7.5-7.5,7.5Z"/>
  <path class="st0" d="M283.4,251.8c-7.9-6-17.4-9.1-27.4-9.1s-19.5,3.2-27.5,9.2c-3.3,2.5-4,7.2-1.5,10.5,1.5,2,3.7,3,6,3s3.2-.5,4.5-1.5c5.3-4,11.7-6.2,18.4-6.2s13,2.1,18.4,6.1c3.3,2.5,8,1.8,10.5-1.5,2.5-3.3,1.8-8-1.5-10.5Z"/>
  <path class="st0" d="M294.2,232.4c-11.1-8.3-24.3-12.8-38.1-12.8s-27.1,4.4-38.2,12.8c-3.3,2.5-4,7.2-1.5,10.5,1.5,2,3.7,3,6,3s3.2-.5,4.5-1.5c8.5-6.4,18.5-9.8,29.2-9.8s20.7,3.4,29.1,9.7c3.3,2.5,8,1.8,10.5-1.5,2.5-3.3,1.8-8-1.5-10.5Z"/>
  <path class="st0" d="M304.5,213.5c-14.1-10.6-30.8-16.2-48.5-16.2s-34.5,5.6-48.6,16.3c-3.3,2.5-4,7.2-1.5,10.5,1.5,2,3.7,3,6,3s3.2-.5,4.5-1.5c11.5-8.7,25.1-13.2,39.5-13.2s28,4.6,39.5,13.2c3.3,2.5,8,1.8,10.5-1.5,2.5-3.3,1.8-8-1.5-10.5Z"/>
  <path class="st0" d="M263.5,278.3c0,4.1-3.4,7.5-7.5,7.5s-7.5-3.4-7.5-7.5,3.4-7.5,7.5-7.5,7.5,3.4,7.5,7.5Z"/>
</svg>