<?xml version="1.0" encoding="UTF-8"?>
<svg id="Capa_1" xmlns="http://www.w3.org/2000/svg" version="1.1" viewBox="0 0 512 512">
  <!-- Generator: Adobe Illustrator 29.2.1, SVG Export Plug-In . SVG Version: 2.1.0 Build 116)  -->
  <defs>
    <style>
      .st0 {
        fill: #f36f21;
      }
    </style>
  </defs>
  <path class="st0" d="M245.2,45L260.2,0h-88.4l15,45h58.4Z"/>
  <path class="st0" d="M431,136h-30v-25c0-8.3-6.7-15-15-15h-30c-8.3,0-15,6.7-15,15v25h-30c-11,0-20,9-20,20v200c0,11,9,20,20,20h120c11,0,20-9,20-20v-200c0-11-9-20-20-20ZM405.2,260.7l-20,60c-2.6,7.9-11.1,12.1-19,9.5s-12.1-11.1-9.5-19l13.4-40.3h-19.2c-10.2,0-17.5-10-14.2-19.7l20-60c2.6-7.9,11.1-12.1,19-9.5s12.1,11.1,9.5,19l-13.4,40.3h19.2c10.2,0,17.5,10,14.2,19.7Z"/>
  <path class="st0" d="M311,406c-27.6,0-50-22.4-50-50v-200c0-27.6,22.4-50,50-50h.3c2.5-22.5,21.6-40,44.7-40h15v-21C371,20.2,350.8,0,326,0h-34.2l-21.6,64.7c-2,6.1-7.8,10.3-14.2,10.3h-80c-6.5,0-12.2-4.1-14.2-10.3L140.2,0h-34.2C81.2,0,61,20.2,61,45v422c0,24.8,20.2,45,45,45h220c24.8,0,45-20.2,45-45v-61h-60ZM246,467h-60c-8.3,0-15-6.7-15-15s6.7-15,15-15h60c8.3,0,15,6.7,15,15s-6.7,15-15,15Z"/>
</svg>