<?xml version="1.0" encoding="UTF-8"?>
<svg id="Icons" xmlns="http://www.w3.org/2000/svg" version="1.1" viewBox="0 0 512 512">
  <!-- Generator: Adobe Illustrator 29.2.1, SVG Export Plug-In . SVG Version: 2.1.0 Build 116)  -->
  <defs>
    <style>
      .st0 {
        fill: #f36f21;
      }
    </style>
  </defs>
  <path class="st0" d="M486.4,230.4c-11.1,0-20.5,7.2-24,17.1h-52.8v-34.1h51.2c4.7,0,8.5-3.8,8.5-8.5s-3.8-8.5-8.5-8.5h-51.2v-34.1h59.7c9.4,0,17.1-7.7,17.1-17.1v-18.6c9.9-3.5,17.1-12.9,17.1-24s-11.5-25.6-25.6-25.6-25.6,11.5-25.6,25.6,7.2,20.5,17.1,24v18.6h-59.7v-8.5c0-18.8-15.3-34.1-34.1-34.1h-8.5v-59.7h18.6c3.5,9.9,12.9,17.1,24,17.1s25.6-11.5,25.6-25.6-11.5-25.6-25.6-25.6-20.5,7.2-24,17.1h-18.6c-9.4,0-17.1,7.7-17.1,17.1v59.7h-34.1v-51.2c0-4.7-3.8-8.5-8.5-8.5s-8.5,3.8-8.5,8.5v51.2h-34.1v-52.8c9.9-3.5,17.1-12.9,17.1-24S270.1,0,256,0s-25.6,11.5-25.6,25.6,7.2,20.5,17.1,24v52.8h-34.1v-51.2c0-4.7-3.8-8.5-8.5-8.5s-8.5,3.8-8.5,8.5v51.2h-34.1v-59.7c0-9.4-7.7-17.1-17.1-17.1h-18.6c-3.5-9.9-12.9-17.1-24-17.1s-25.6,11.5-25.6,25.6,11.5,25.6,25.6,25.6,20.5-7.2,24-17.1h18.6v59.7h-8.5c-18.8,0-34.1,15.3-34.1,34.1v8.5h-59.7v-18.6c9.9-3.5,17.1-12.9,17.1-24s-11.5-25.6-25.6-25.6-25.6,11.5-25.6,25.6,7.2,20.5,17.1,24v18.6c0,9.4,7.7,17.1,17.1,17.1h59.7v34.1h-51.2c-4.7,0-8.5,3.8-8.5,8.5s3.8,8.5,8.5,8.5h51.2v34.1h-52.8c-3.5-9.9-12.9-17.1-24-17.1S0,241.9,0,256s11.5,25.6,25.6,25.6,20.5-7.2,24-17.1h52.8v34.1h-51.2c-4.7,0-8.5,3.8-8.5,8.5s3.8,8.5,8.5,8.5h51.2v34.1h-59.7c-9.4,0-17.1,7.7-17.1,17.1v18.6c-9.9,3.5-17.1,12.9-17.1,24s11.5,25.6,25.6,25.6,25.6-11.5,25.6-25.6-7.2-20.5-17.1-24v-18.6h59.7v8.5c0,18.8,15.3,34.1,34.1,34.1h8.5v59.7h-18.6c-3.5-9.9-12.9-17.1-24-17.1s-25.6,11.5-25.6,25.6,11.5,25.6,25.6,25.6,20.5-7.2,24-17.1h18.6c9.4,0,17.1-7.7,17.1-17.1v-59.7h34.1v51.2c0,4.7,3.8,8.5,8.5,8.5s8.5-3.8,8.5-8.5v-51.2h34.1v52.8c-9.9,3.5-17.1,12.9-17.1,24s11.5,25.6,25.6,25.6,25.6-11.5,25.6-25.6-7.2-20.5-17.1-24v-52.8h34.1v51.2c0,4.7,3.8,8.5,8.5,8.5s8.5-3.8,8.5-8.5v-51.2h34.1v59.7c0,9.4,7.7,17.1,17.1,17.1h18.6c3.5,9.9,12.9,17.1,24,17.1s25.6-11.5,25.6-25.6-11.5-25.6-25.6-25.6-20.5,7.2-24,17.1h-18.6v-59.7h8.5c18.8,0,34.1-15.3,34.1-34.1v-8.5h59.7v18.6c-9.9,3.5-17.1,12.9-17.1,24s11.5,25.6,25.6,25.6,25.6-11.5,25.6-25.6-7.2-20.5-17.1-24v-18.6c0-9.4-7.7-17.1-17.1-17.1h-59.7v-34.1h51.2c4.7,0,8.5-3.8,8.5-8.5s-3.8-8.5-8.5-8.5h-51.2v-34.1h52.8c3.5,9.9,12.9,17.1,24,17.1s25.6-11.5,25.6-25.6-11.5-25.6-25.6-25.6ZM477.9,93.9c4.7,0,8.5,3.8,8.5,8.5s-3.8,8.5-8.5,8.5-8.5-3.8-8.5-8.5,3.8-8.5,8.5-8.5ZM409.6,25.6c4.7,0,8.5,3.8,8.5,8.5s-3.8,8.5-8.5,8.5-8.5-3.8-8.5-8.5,3.8-8.5,8.5-8.5ZM256,17.1c4.7,0,8.5,3.8,8.5,8.5s-3.8,8.5-8.5,8.5-8.5-3.8-8.5-8.5,3.8-8.5,8.5-8.5ZM102.4,42.7c-4.7,0-8.5-3.8-8.5-8.5s3.8-8.5,8.5-8.5,8.5,3.8,8.5,8.5-3.8,8.5-8.5,8.5ZM34.1,93.9c4.7,0,8.5,3.8,8.5,8.5s-3.8,8.5-8.5,8.5-8.5-3.8-8.5-8.5,3.8-8.5,8.5-8.5ZM25.6,264.5c-4.7,0-8.5-3.8-8.5-8.5s3.8-8.5,8.5-8.5,8.5,3.8,8.5,8.5-3.8,8.5-8.5,8.5ZM34.1,418.1c-4.7,0-8.5-3.8-8.5-8.5s3.8-8.5,8.5-8.5,8.5,3.8,8.5,8.5-3.8,8.5-8.5,8.5ZM102.4,486.4c-4.7,0-8.5-3.8-8.5-8.5s3.8-8.5,8.5-8.5,8.5,3.8,8.5,8.5-3.8,8.5-8.5,8.5ZM256,494.9c-4.7,0-8.5-3.8-8.5-8.5s3.8-8.5,8.5-8.5,8.5,3.8,8.5,8.5-3.8,8.5-8.5,8.5ZM409.6,469.3c4.7,0,8.5,3.8,8.5,8.5s-3.8,8.5-8.5,8.5-8.5-3.8-8.5-8.5,3.8-8.5,8.5-8.5ZM477.9,418.1c-4.7,0-8.5-3.8-8.5-8.5s3.8-8.5,8.5-8.5,8.5,3.8,8.5,8.5-3.8,8.5-8.5,8.5ZM392.5,375.5c0,9.4-7.7,17.1-17.1,17.1h-238.9c-9.4,0-17.1-7.7-17.1-17.1v-238.9c0-9.4,7.7-17.1,17.1-17.1h238.9c9.4,0,17.1,7.7,17.1,17.1v238.9ZM486.4,264.5c-4.7,0-8.5-3.8-8.5-8.5s3.8-8.5,8.5-8.5,8.5,3.8,8.5,8.5-3.8,8.5-8.5,8.5Z"/>
  <g>
    <path class="st0" d="M201.2,263.9c2.5,5.4,3.7,12.2,3.7,20.3s-2.3,19.9-6.9,26.1c-4.6,6.2-11.1,9.3-19.3,9.3h-28.3c-1.8,0-3.2-.8-4.2-2.5s-1.5-3.9-1.5-6.7v-111.6c0-2.8.5-5.1,1.5-6.7,1-1.7,2.4-2.5,4.2-2.5h27c8.1,0,14.3,3,18.9,9,4.5,6,6.8,14.3,6.8,25s-1.1,12.9-3.3,17.9c-2.2,5-5.2,8.8-9.1,11.3,4.5,2.1,8,5.8,10.5,11.3ZM155.9,245.8h19.7c10.9,0,16.4-6.9,16.4-20.7s-1.3-12-4-15.3c-2.7-3.3-6.8-5-12.4-5h-19.7v41ZM189.9,299.2c2.7-3.4,4-8.8,4-16.1s-1.3-12.9-4-16.5c-2.7-3.6-6.9-5.4-12.5-5.4h-21.5v43.2h21.5c5.7,0,9.9-1.7,12.5-5.2Z"/>
    <path class="st0" d="M293.2,191.3c1,1.8,1.6,4.1,1.6,6.9v113.3c0,2.8-.5,5-1.4,6.6-.9,1.6-2.2,2.4-3.8,2.4s-2.8-.8-3.7-2.4c-.9-1.6-1.3-3.8-1.3-6.6v-85.8l-21.7,68.8c-1.4,4.3-3.2,6.5-5.4,6.5s-4-2.2-5.4-6.5l-21.8-68.1v85.1c0,2.8-.4,5-1.3,6.6-.9,1.6-2.1,2.4-3.8,2.4s-2.8-.8-3.7-2.5c-.9-1.7-1.4-3.8-1.4-6.6v-113.3c0-2.8.5-5.1,1.6-6.9,1-1.8,2.4-2.7,4-2.7s4.1,2.2,5.5,6.6l26.5,84.3,26.3-84.3c1.4-4.4,3.2-6.6,5.4-6.6s3,.9,4,2.7Z"/>
    <path class="st0" d="M322.8,317.3c-5.1-2.6-9.1-6.2-12.1-10.7-1.4-2-2.1-4.5-2.1-7.6s.4-4.1,1.1-5.6c.7-1.5,1.6-2.3,2.7-2.3s2.3.8,3.8,2.4c6.6,8.1,14.1,12.2,22.5,12.2s10.5-1.8,13.6-5.5c3.2-3.7,4.8-9,4.8-15.9s-1.5-9.5-4.4-12.2c-3-2.7-7.7-5.3-14.2-7.8-6.2-2.2-11.3-4.7-15.3-7.6-4-2.8-7.1-6.7-9.4-11.5-2.3-4.9-3.4-11-3.4-18.5s1.2-14.2,3.7-20c2.5-5.8,5.9-10.4,10.4-13.7,4.4-3.3,9.5-4.9,15.2-4.9s10.1,1.2,14.5,3.7c4.4,2.5,8.2,6.1,11.3,10.9,1.5,2.1,2.2,4.6,2.2,7.6s-.4,3.9-1.2,5.5c-.8,1.6-1.7,2.4-2.7,2.4s-2.2-.8-3.7-2.4c-3.4-4.3-6.6-7.4-9.6-9.3-3-1.9-6.6-2.9-10.8-2.9s-10.1,1.9-13.3,5.8c-3.2,3.9-4.8,9.3-4.8,16.1s1.4,10.4,4.2,13.4c2.8,3,7.3,5.8,13.5,8.2,6.5,2.5,11.8,5,15.8,7.7,4,2.6,7.2,6.3,9.6,10.9,2.4,4.6,3.6,10.6,3.6,17.8s-1.2,13.9-3.7,19.7c-2.5,5.7-5.9,10.2-10.4,13.3-4.5,3.1-9.6,4.7-15.5,4.7s-11-1.3-16-3.9Z"/>
  </g>
</svg>