<?xml version="1.0" encoding="UTF-8"?>
<svg id="Capa_1" xmlns="http://www.w3.org/2000/svg" version="1.1" viewBox="0 0 512 512">
  <!-- Generator: Adobe Illustrator 29.2.1, SVG Export Plug-In . SVG Version: 2.1.0 Build 116)  -->
  <defs>
    <style>
      .st0 {
        fill: #fff;
      }
    </style>
  </defs>
  <g>
    <path class="st0" d="M140.5,120.1c2.9,2.9,7.7,2.9,10.6,0,2.9-2.9,2.9-7.7,0-10.6l-16.3-16.3c-2.9-2.9-7.7-2.9-10.6,0-2.9,2.9-2.9,7.7,0,10.6l16.3,16.3Z"/>
    <path class="st0" d="M246,80.7c4.1,0,7.5-3.4,7.5-7.5v-23.1c0-4.1-3.4-7.5-7.5-7.5s-7.5,3.4-7.5,7.5v23.1c0,4.1,3.4,7.5,7.5,7.5Z"/>
    <path class="st0" d="M351.5,120.1l16.3-16.3c2.9-2.9,2.9-7.7,0-10.6-2.9-2.9-7.7-2.9-10.6,0l-16.3,16.3c-2.9,2.9-2.9,7.7,0,10.6s7.7,2.9,10.6,0Z"/>
  </g>
  <path class="st0" d="M404,456.7c.7,0,1.3,0,2-.3,4-1.1,6.3-5.2,5.2-9.2l-5-18c-1.1-4-5.2-6.3-9.2-5.2-4,1.1-6.3,5.2-5.2,9.2l5,18c.9,3.3,3.9,5.5,7.2,5.5h0Z"/>
  <path class="st0" d="M345.8,456.7c.7,0,1.3,0,2-.3,4-1.1,6.3-5.2,5.2-9.2l-5-18c-1.1-4-5.2-6.3-9.2-5.2-4,1.1-6.3,5.2-5.2,9.2l5,18c.9,3.3,3.9,5.5,7.2,5.5h0Z"/>
  <path class="st0" d="M287.6,456.7c.7,0,1.3,0,2-.3,4-1.1,6.3-5.2,5.2-9.2l-5-18c-1.1-4-5.2-6.3-9.2-5.2-4,1.1-6.3,5.2-5.2,9.2l5,18c.9,3.3,3.9,5.5,7.2,5.5h0Z"/>
  <path class="st0" d="M229.4,456.7c.7,0,1.3,0,2-.3,4-1.1,6.3-5.2,5.2-9.2l-5-18c-1.1-4-5.2-6.3-9.2-5.2-4,1.1-6.3,5.2-5.2,9.2l5,18c.9,3.3,3.9,5.5,7.2,5.5h0Z"/>
  <path class="st0" d="M171.2,456.7c.7,0,1.3,0,2-.3,4-1.1,6.3-5.2,5.2-9.2l-5-18c-1.1-4-5.2-6.3-9.2-5.2-4,1.1-6.3,5.2-5.2,9.2l5,18c.9,3.3,3.9,5.5,7.2,5.5h0Z"/>
  <path class="st0" d="M113,456.7c.7,0,1.3,0,2-.3,4-1.1,6.3-5.2,5.2-9.2l-5-18c-1.1-4-5.2-6.3-9.2-5.2-4,1.1-6.3,5.2-5.2,9.2l5,18c.9,3.3,3.9,5.5,7.2,5.5h0Z"/>
  <path class="st0" d="M54.8,456.7c.7,0,1.3,0,2-.3,4-1.1,6.3-5.2,5.2-9.2l-5-18c-1.1-4-5.2-6.3-9.2-5.2-4,1.1-6.3,5.2-5.2,9.2l5,18c.9,3.3,3.9,5.5,7.2,5.5h0Z"/>
  <path class="st0" d="M462.2,456.7c.7,0,1.3,0,2-.3,4-1.1,6.3-5.2,5.2-9.2l-5-18c-1.1-4-5.2-6.3-9.2-5.2-4,1.1-6.3,5.2-5.2,9.2l5,18c.9,3.3,3.9,5.5,7.2,5.5h0Z"/>
  <path class="st0" d="M495.4,365.1h-158.9c20.2-7.9,39.2-18.7,56.7-32.5,32.2-25.4,56.9-59.5,71-97.7l4.5,12.6c1.4,3.9,5.7,5.9,9.6,4.6,3.9-1.4,5.9-5.7,4.6-9.6l-12-33.8c-1.5-4.2-6.3-6.2-10.3-4.2l-30.3,14.6c-3.7,1.8-5.3,6.3-3.5,10,1.8,3.7,6.3,5.3,10,3.5l15-7.2c-12.8,37.4-36.5,70.8-67.8,95.5-36.8,29-81,44.3-127.9,44.3s-91.1-15.3-127.9-44.3c-31.3-24.6-54.9-58.1-67.8-95.5l15,7.2c3.7,1.8,8.2.2,10-3.5s.2-8.2-3.5-10l-30.3-14.6c-4-1.9-8.8,0-10.3,4.2l-12,33.8c-1.4,3.9.6,8.2,4.6,9.6,3.9,1.4,8.2-.7,9.6-4.6l4.5-12.6c14.1,38.2,38.8,72.3,71,97.7,17.5,13.8,36.5,24.6,56.7,32.5H16.6C7.4,365.1,0,372.6,0,381.7v22.9c0,4.1,3.4,7.5,7.5,7.5h497c4.1,0,7.5-3.4,7.5-7.5v-22.9c0-9.1-7.4-16.6-16.6-16.6h0ZM16.6,380.1h478.9c.9,0,1.6.7,1.6,1.6v15.4H15v-15.4c0-.9.7-1.6,1.6-1.6Z"/>
  <path class="st0" d="M504.5,468.2H7.5c-4.1,0-7.5,3.4-7.5,7.5s3.4,7.5,7.5,7.5h497c4.1,0,7.5-3.4,7.5-7.5s-3.4-7.5-7.5-7.5Z"/>
  <g>
    <path class="st0" d="M187,217.1c3.2,4.4,4.7,9.8,4.7,16.4s-3,16-8.9,21c-5.9,5-14.2,7.5-24.8,7.5h-36.3c-2.3,0-4.1-.6-5.4-2-1.3-1.4-1.9-3.1-1.9-5.4v-90c0-2.3.6-4.1,1.9-5.4,1.3-1.4,3.1-2,5.4-2h34.7c10.4,0,18.4,2.4,24.3,7.3,5.8,4.8,8.7,11.5,8.7,20.2s-1.4,10.4-4.2,14.4-6.7,7.1-11.7,9.1c5.8,1.7,10.3,4.7,13.5,9.1v-.2ZM128.8,202.5h25.3c14,0,21.1-5.6,21.1-16.7s-1.7-9.7-5.1-12.3-8.7-4-15.9-4h-25.3v33.1ZM172.5,245.6c3.5-2.7,5.1-7.1,5.1-13s-1.7-10.4-5.1-13.3-8.9-4.4-16-4.4h-27.6v34.8h27.6c7.3,0,12.7-1.4,16-4.2Z"/>
    <path class="st0" d="M305.1,158.6c1.3,1.5,2.1,3.3,2.1,5.6v91.4c0,2.3-.6,4-1.8,5.3s-2.8,1.9-4.9,1.9-3.6-.6-4.7-1.9c-1.2-1.3-1.7-3.1-1.7-5.3v-69.2l-27.9,55.5c-1.8,3.5-4.1,5.2-6.9,5.2s-5.1-1.8-6.9-5.2l-28-54.9v68.6c0,2.3-.5,4-1.7,5.3-1.2,1.3-2.7,1.9-4.9,1.9s-3.6-.6-4.7-2-1.8-3.1-1.8-5.3v-91.4c0-2.3.6-4.1,2.1-5.6,1.3-1.5,3.1-2.2,5.1-2.2s5.3,1.8,7.1,5.3l34,68,33.8-68c1.8-3.5,4.1-5.3,6.9-5.3s3.9.7,5.1,2.2h-.3Z"/>
    <path class="st0" d="M343.1,260.2c-6.5-2.1-11.7-5-15.5-8.6-1.8-1.6-2.7-3.6-2.7-6.1s.5-3.3,1.4-4.5,2.1-1.9,3.5-1.9,3,.6,4.9,1.9c8.5,6.5,18.1,9.8,28.9,9.8s13.5-1.5,17.5-4.4c4.1-3,6.2-7.3,6.2-12.8s-1.9-7.7-5.6-9.8c-3.9-2.2-9.9-4.3-18.2-6.3-8-1.8-14.5-3.8-19.6-6.1-5.1-2.3-9.1-5.4-12.1-9.3-3-4-4.4-8.9-4.4-14.9s1.5-11.4,4.7-16.1c3.2-4.7,7.6-8.4,13.4-11,5.6-2.7,12.2-4,19.5-4s13,1,18.6,3,10.5,4.9,14.5,8.8c1.9,1.7,2.8,3.7,2.8,6.1s-.5,3.1-1.5,4.4c-1,1.3-2.2,1.9-3.5,1.9s-2.8-.6-4.7-1.9c-4.4-3.5-8.5-6-12.3-7.5-3.9-1.5-8.5-2.3-13.9-2.3s-13,1.5-17.1,4.7c-4.1,3.1-6.2,7.5-6.2,13s1.8,8.4,5.4,10.8c3.6,2.4,9.4,4.7,17.3,6.6,8.3,2,15.1,4,20.3,6.2,5.1,2.1,9.2,5.1,12.3,8.8,3.1,3.7,4.6,8.5,4.6,14.4s-1.5,11.2-4.7,15.9c-3.2,4.6-7.6,8.2-13.4,10.7-5.8,2.5-12.3,3.8-19.9,3.8s-14.1-1-20.5-3.1h.1Z"/>
  </g>
</svg>