<?xml version="1.0" encoding="UTF-8"?>
<svg id="Layer_1" xmlns="http://www.w3.org/2000/svg" version="1.1" viewBox="0 0 512 512">
  <!-- Generator: Adobe Illustrator 29.2.1, SVG Export Plug-In . SVG Version: 2.1.0 Build 116)  -->
  <defs>
    <style>
      .st0 {
        fill: #fff;
      }
    </style>
  </defs>
  <path class="st0" d="M256,512c.8,0,1.6-.1,2.4-.4,122.9-39.3,205.6-152.5,205.6-281.6V88c0-4.1-3.1-7.5-7.1-8-64-6.9-130-33.4-196.3-78.7-2.7-1.8-6.3-1.9-9,0C184.6,47.1,118.5,73.5,55.2,80c-4.1.4-7.2,3.9-7.2,8v142c0,129.1,82.6,242.3,205.6,281.6.8.3,1.6.4,2.4.4ZM64,230V95.1c62.4-7.8,126.9-33.8,192-77.5,64.6,43.2,129.1,69.3,192,77.4v134.9c0,121.3-77.1,227.7-192,265.6-114.9-37.9-192-144.3-192-265.6Z"/>
  <path class="st0" d="M248.3,62.7c2.6-1.7,5.2-3.4,7.7-5.1,2.6,1.7,5.2,3.4,7.7,5.1,1.3.9,2.8,1.3,4.3,1.3,2.6,0,5.2-1.3,6.7-3.7,2.4-3.7,1.3-8.7-2.4-11.1-4-2.6-7.9-5.2-11.9-7.9-2.7-1.8-6.3-1.8-9,0-4,2.7-7.9,5.3-11.9,7.9-3.7,2.4-4.8,7.3-2.4,11.1,2.4,3.7,7.4,4.8,11.1,2.4h0Z"/>
  <path class="st0" d="M141.7,95.7c-18.2,5.6-36.6,9.3-54.5,11.2-4.1.4-7.2,3.9-7.2,8v21.1c0,4.4,3.6,8,8,8s8-3.6,8-8v-14c16.6-2.2,33.5-5.8,50.3-11,4.2-1.3,6.6-5.8,5.3-10-1.3-4.2-5.8-6.6-10-5.3Z"/>
  <path class="st0" d="M258.4,472c28.6-9.1,54.9-23.2,78.4-41.7,3.5-2.7,4.1-7.8,1.3-11.2s-7.8-4.1-11.2-1.3c-22,17.3-46.7,30.4-73.4,39-4.2,1.3-6.5,5.8-5.2,10.1,1.1,3.4,4.2,5.6,7.6,5.6.8,0,1.6-.1,2.4-.4h0Z"/>
  <circle class="st0" cx="386.8" cy="362.9" r="8"/>
  <path class="st0" d="M397.5,344.5c1.1.5,2.3.8,3.4.8,3,0,5.9-1.7,7.2-4.6,15.8-33.5,23.8-69.4,23.8-106.5s-3.6-8-8-8-8,3.6-8,8c0,34.8-7.5,68.3-22.3,99.7-1.9,4-.2,8.8,3.8,10.6h0Z"/>
  <path class="st0" d="M253.8,359.9c.7.2,1.5.3,2.2.3,2.7,0,5.3-1.4,6.8-3.8l23.8-38c2.3-3.7,1.2-8.7-2.5-11-3.8-2.3-8.7-1.2-11,2.5l-9,14.3v-40.8c0-4.4-3.6-8-8-8h-55.1l47.1-84.8v51.6c0,4.4,3.6,8,8,8h54.3l-12.3,19.7c-2.3,3.8-1.2,8.7,2.5,11,3.8,2.3,8.7,1.2,11-2.5l20-31.9c1.5-2.5,1.6-5.6.2-8.1-1.4-2.5-4.1-4.1-7-4.1h-60.7v-74.5c0-3.6-2.5-6.8-6-7.7-3.5-.9-7.2.7-9,3.9l-68.7,123.7c-1.4,2.5-1.3,5.5,0,7.9s4.1,3.9,6.9,3.9h60.7v60.7c0,3.6,2.4,6.7,5.8,7.7h0Z"/>
  <circle class="st0" cx="292.2" cy="294.2" r="8"/>
  <circle class="st0" cx="88" cy="160" r="8"/>
</svg>