<?xml version="1.0" encoding="UTF-8"?>
<svg id="Layer_1" xmlns="http://www.w3.org/2000/svg" version="1.1" viewBox="0 0 511 512">
  <!-- Generator: Adobe Illustrator 29.2.1, SVG Export Plug-In . SVG Version: 2.1.0 Build 116)  -->
  <defs>
    <style>
      .st0 {
        fill: #f36f21;
      }
    </style>
  </defs>
  <path class="st0" d="M347.3,155.1c-5.5,0-10,4.5-10,10s4.5,10,10,10,10-4.5,10-10-4.5-10-10-10Z"/>
  <path class="st0" d="M165.6,336.8c-5.5,0-10,4.5-10,10s4.5,10,10,10,10-4.5,10-10-4.5-10-10-10Z"/>
  <path class="st0" d="M500.1,61.5c-3.4-.8-6.9.2-9.4,2.7l-41.5,41.8h-19.9l-21.9-22.7v-20.2l40.9-41.5c2.4-2.5,3.4-6,2.6-9.3-.8-3.4-3.3-6.1-6.5-7.2C434.2,1.8,423.4,0,412.5,0,379.9,0,350.3,15.2,331.3,41.7c-17.8,24.8-23.3,55.2-15.4,84.2l-73.7,73.7-122.7-123v-24.1c0-3.5-1.8-6.8-4.9-8.6L43.9,1.4c-3.9-2.4-9-1.7-12.2,1.5L3.4,31.2c-3.2,3.2-3.9,8.3-1.5,12.2l42.4,70.7c1.8,3,5.1,4.9,8.6,4.9h24.1s122.7,123,122.7,123l-73.4,73.4c-29.1-7.9-59.5-2.4-84.3,15.5C15.7,349.8.5,379.4.5,412s1.8,21.7,5.2,31.9c1.1,3.3,3.8,5.8,7.2,6.5,3.4.8,6.9-.2,9.4-2.7l41.5-41.8h20l22.8,22.8v20l-41.8,41.5c-2.5,2.4-3.5,6-2.7,9.4.8,3.4,3.3,6.1,6.5,7.2,10.3,3.5,21,5.2,31.9,5.2,32.6,0,62.1-15.2,81.2-41.6,17.8-24.8,23.3-55.2,15.5-84.3l58.9-58.9,13.5,14.7-6.2,6.2c-3.9,3.9-3.9,10.2,0,14.1,3.9,3.9,10.2,3.9,14.1,0l5.6-5.6,126.7,137.6c0,.1.2.2.3.3,23.4,23.4,61.4,23.4,84.9,0,23.4-23.4,23.4-61.5,0-84.9-.1-.1-.2-.2-.3-.3l-137.8-126.4,5.5-5.5c3.9-3.9,3.9-10.2,0-14.1s-10.2-3.9-14.1,0l-6.2,6.2-14.7-13.5,59.2-59.2c8.4,2.2,17.1,3.4,25.9,3.4,55.1,0,100-44.9,100-100s-1.8-21.7-5.2-31.9c-1.1-3.3-3.8-5.8-7.2-6.5ZM88.3,101.9c-1.9-1.9-4.4-2.8-7.1-2.8h-22.6S23.1,39.8,23.1,39.8l17.2-17.2,59.2,35.5v22.6c0,2.6,1.1,5.2,2.9,7.1l125.7,125.9-14.1,14.1-125.6-125.9ZM342.6,297l138.3,126.8c15.4,15.6,15.4,40.9-.1,56.4-15.6,15.6-40.8,15.6-56.4.1l-127.1-138,45.4-45.4ZM327.9,283.5l-44.2,44.2-13.5-14.7,43-43,14.7,13.5ZM412.5,180c-8.7,0-17.3-1.4-25.6-4.2-3.6-1.2-7.6-.3-10.3,2.4-50.1,50.1-158.2,158.2-197.9,197.9-2.7,2.7-3.6,6.7-2.4,10.3,8.3,24.7,4.3,51-10.9,72.2-15.2,21.2-38.9,33.3-64.9,33.3s-5.8-.2-8.7-.5l31.8-31.5c1.9-1.9,3-4.4,3-7.1v-28.3c0-2.7-1.1-5.2-2.9-7.1l-28.6-28.6c-1.9-1.9-4.4-2.9-7.1-2.9h-28.3c-2.7,0-5.2,1.1-7.1,3l-31.5,31.8c-.3-2.9-.5-5.8-.5-8.7,0-26.1,12.1-49.7,33.3-64.9,21.2-15.2,47.6-19.2,72.2-10.9,3.6,1.2,7.6.3,10.3-2.4.6-.5,197.8-197.8,197.9-197.9,2.7-2.7,3.6-6.7,2.4-10.3-8.3-24.7-4.3-51,10.9-72.2,15.2-21.2,38.9-33.3,64.9-33.3s6,.2,9,.5l-31.1,31.6c-1.8,1.9-2.9,4.4-2.9,7v28.3c0,2.6,1,5.1,2.8,6.9l27.6,28.6c1.9,2,4.5,3.1,7.2,3.1h28.3c2.7,0,5.2-1.1,7.1-3l31.5-31.8c.3,2.9.5,5.8.5,8.7,0,44.1-35.9,80-80,80Z"/>
  <path class="st0" d="M312,186.4l-125.1,125.1c-3.9,3.9-3.9,10.2,0,14.1,3.9,3.9,10.2,3.9,14.1,0l125.1-125.1c3.9-3.9,3.9-10.2,0-14.1s-10.2-3.9-14.1,0Z"/>
  <path class="st0" d="M438.4,452c3.9,3.9,10.2,3.9,14.1,0,3.9-3.9,3.9-10.2,0-14.1l-90.1-89.8c-3.9-3.9-10.2-3.9-14.1,0-3.9,3.9-3.9,10.2,0,14.1l90.1,89.8Z"/>
</svg>