<?xml version="1.0" encoding="UTF-8"?>
<svg id="Icons" xmlns="http://www.w3.org/2000/svg" version="1.1" viewBox="0 0 512 512">
  <!-- Generator: Adobe Illustrator 29.2.1, SVG Export Plug-In . SVG Version: 2.1.0 Build 116)  -->
  <defs>
    <style>
      .st0 {
        fill: #f36f21;
      }
    </style>
  </defs>
  <path class="st0" d="M249.3,495c2.2.7,4.4,1,6.7,1,2.2,0,4.4-.3,6.5-1,32.2-9.2,62.6-23.8,89.9-43,3.5-2.7,4.1-7.7,1.4-11.2-2.5-3.3-7.2-4.1-10.6-1.8-25.9,18.2-54.8,32-85.2,40.7-1.3.4-2.8.4-4.1,0-39.8-11.3-76.6-31.3-107.8-58.5-3.1-3.1-8.2-3.1-11.3,0s-3.1,8.2,0,11.3c.2.2.4.4.7.6,32.9,28.7,71.8,49.8,113.8,61.8Z"/>
  <path class="st0" d="M44.6,120.4c-4.4-.6-8.4,2.5-9,6.9,0,0,0,0,0,0-5.6,42.2-12.4,150.3,46.8,243.8,2.4,3.7,7.3,4.8,11,2.5,3.7-2.4,4.8-7.3,2.5-11h0c-56.4-89-49.9-192.6-44.5-233.1.6-4.4-2.5-8.4-6.9-9Z"/>
  <path class="st0" d="M104.3,388.4c-3.4,2.8-4,7.8-1.2,11.2,0,0,0,0,0,0,2.4,3,5,6,7.6,8.9,2.9,3.3,8,3.6,11.3.7,3.3-2.9,3.6-8,.7-11.3h0c-2.5-2.8-4.9-5.6-7.1-8.4-2.8-3.4-7.8-4-11.2-1.2,0,0,0,0,0,0Z"/>
  <path class="st0" d="M455.9,101c-29.1-5.1-57.5-13.1-85-23.9-35.9-14.2-69.8-33.1-100.7-56.3-8.4-6.3-20.1-6.3-28.5,0-15.4,11.5-31.5,22-48.3,31.4-3.9,2.2-5.2,7-3.1,10.9,2.2,3.9,7,5.2,10.9,3.1,0,0,0,0,0,0,17.4-9.8,34.1-20.7,50.1-32.6,2.7-2.1,6.5-2.1,9.3,0,32.1,24,67.2,43.7,104.4,58.4,28.5,11.2,58,19.5,88.2,24.8,3.4.6,6,3.3,6.4,6.7,5.1,33.8,13,121.5-25.4,205.3-1.9,4-.2,8.8,3.8,10.7s8.8.2,10.7-3.8c0,0,0-.2.1-.2,40.1-87.7,32-179.2,26.6-214.4-1.5-10.2-9.4-18.3-19.6-20Z"/>
  <path class="st0" d="M248.3,438.6c2.5.9,5.1,1.4,7.7,1.4,2.6,0,5.2-.5,7.6-1.4,11-3.9,21.8-8.5,32.2-13.8,3.9-2,5.5-6.8,3.5-10.8s-6.8-5.5-10.8-3.5c-9.8,5-19.9,9.4-30.3,13-1.5.6-3.1.6-4.5,0-35.9-12.3-68.1-33.3-93.8-61.2-60.4-65.8-65.7-154-63.5-200.5,0-1.2.4-2.5.9-3.6,1.7-4.1-.3-8.8-4.4-10.4-3.8-1.5-8.1,0-10,3.5-1.4,3-2.3,6.3-2.5,9.6-2.3,49.2,3.4,142.2,67.7,212.3,27.4,29.8,61.9,52.2,100.2,65.4Z"/>
  <path class="st0" d="M403,296c.9.3,1.8.5,2.7.5,3.4,0,6.4-2.1,7.5-5.3,14.6-41.8,20.8-86.1,18.3-130.3-.3-6.5-3.2-12.7-8.1-17-3.1-3.2-8.1-3.3-11.3-.2-3.2,3.1-3.3,8.1-.2,11.3.3.3.5.5.8.7,1.7,1.5,2.7,3.7,2.8,6,2.4,42.1-3.5,84.2-17.4,124-1.5,4.1.6,8.7,4.7,10.3,0,0,0,0,0,0Z"/>
  <path class="st0" d="M252.9,88.7c2.3-1,5-.8,7.1.5,23,14.9,47.3,27.8,72.5,38.5,4.1,1.6,8.8-.4,10.4-4.5,1.5-3.9-.2-8.4-4.1-10.2-24.4-10.4-47.8-22.9-70.1-37.3-6.6-4.3-15-4.9-22.2-1.7-3.9,2-5.5,6.8-3.6,10.7,1.8,3.7,6.1,5.3,10,3.9h0Z"/>
  <path class="st0" d="M379.9,145.4c.7.2,1.5.3,2.3.3,4.4,0,8-3.6,8-8,0-3.5-2.3-6.6-5.7-7.7-3.9-1.2-7.7-2.5-11.6-3.9-4.2-1.5-8.7.7-10.2,4.8-1.5,4.2.7,8.7,4.8,10.2,4.1,1.5,8.3,2.9,12.4,4.1Z"/>
  <path class="st0" d="M212.9,235.8c-9.9-9.7-25.7-9.7-35.6,0l-10,10.2c-9.7,10-9.7,25.9,0,35.9l61.3,62.6c9.6,9.8,25.3,10,35.1.5.2-.2.3-.3.5-.5l112.6-114.9c9.7-10,9.7-25.9,0-35.9l-10-10.2c-4.7-4.8-11.1-7.5-17.8-7.5h0c-6.7,0-13.1,2.7-17.8,7.5l-78.4,80c-3.5,3.5-9.2,3.5-12.7,0l-27.1-27.7ZM264.2,274.7l78.4-80c3.4-3.5,9-3.6,12.5-.2,0,0,.1.1.2.2l10,10.2c3.6,3.8,3.6,9.7,0,13.5l-112.6,114.9c-3.5,3.5-9.2,3.5-12.7,0l-61.3-62.6c-3.6-3.8-3.6-9.7,0-13.5l10-10.2c3.5-3.5,9.2-3.5,12.7,0l27.1,27.7c9.9,9.7,25.7,9.7,35.6,0Z"/>
  <path class="st0" d="M72,112c0,3.9,2.8,7.2,6.6,7.9,50.7,9.3,56.2,14.9,65.6,65.6.8,4.3,5,7.2,9.3,6.4,3.2-.6,5.8-3.1,6.4-6.4,9.3-50.7,14.9-56.2,65.6-65.6,4.3-.8,7.2-5,6.4-9.3-.6-3.2-3.1-5.8-6.4-6.4-50.7-9.3-56.2-14.9-65.6-65.6-.8-4.3-5-7.2-9.3-6.4-3.2.6-5.8,3.1-6.4,6.4-9.3,50.7-14.9,56.2-65.6,65.6-3.8.7-6.6,4-6.6,7.9ZM152,74.3c4.8,18.4,19.2,32.8,37.7,37.7-18.4,4.8-32.8,19.2-37.7,37.7-4.8-18.4-19.2-32.8-37.7-37.7,18.4-4.8,32.8-19.2,37.7-37.7Z"/>
  <path class="st0" d="M473.4,392.1c-50.7-9.3-56.2-14.9-65.6-65.6-.8-4.3-5-7.2-9.3-6.4-3.2.6-5.8,3.1-6.4,6.4-9.3,50.7-14.9,56.2-65.6,65.6-4.3.8-7.2,5-6.4,9.3.6,3.2,3.1,5.8,6.4,6.4,50.7,9.3,56.2,14.9,65.6,65.6.8,4.3,5,7.2,9.3,6.4,3.2-.6,5.8-3.1,6.4-6.4,9.3-50.7,14.9-56.2,65.6-65.6,4.3-.8,7.2-5,6.4-9.3-.6-3.2-3.1-5.8-6.4-6.4ZM400,437.7c-4.8-18.4-19.2-32.8-37.7-37.7,18.4-4.8,32.8-19.2,37.7-37.7,4.8,18.4,19.2,32.8,37.7,37.7-18.4,4.8-32.8,19.2-37.7,37.7Z"/>
</svg>