<?xml version="1.0" encoding="UTF-8"?>
<svg id="Layer_1" xmlns="http://www.w3.org/2000/svg" version="1.1" viewBox="0 0 512 512">
  <!-- Generator: Adobe Illustrator 29.2.1, SVG Export Plug-In . SVG Version: 2.1.0 Build 116)  -->
  <defs>
    <style>
      .st0 {
        fill: #f36f21;
      }

      .st1 {
        display: none;
      }
    </style>
  </defs>
  <g class="st1">
    <path d="M93,398.1c1.8,2.4,4.6,3.7,7.4,3.7s3.7-.6,5.3-1.7l34-24.7-4.7,29.6c-.8,5,2.6,9.6,7.6,10.4.5,0,1,.1,1.4.1,4.4,0,8.3-3.2,9-7.7l7.5-47.6,62.4-45.3c4.1-3,5-8.7,2-12.7-3-4.1-8.6-5-12.7-2l-62.4,45.3-47.6-7.5c-5-.8-9.6,2.6-10.4,7.6s2.6,9.6,7.6,10.4l29.6,4.7-34,24.7c-4.1,3-5,8.7-2,12.7h0Z"/>
    <path d="M243.1,317.1c-4.8-1.6-9.9,1.1-11.5,5.8l-23.4,71.9-42.9,21.9c-4.5,2.3-6.3,7.8-4,12.2,2.3,4.5,7.8,6.2,12.2,4l26.7-13.6-13,40c-1.6,4.8,1.1,9.9,5.8,11.5.9.3,1.9.5,2.8.5,3.8,0,7.4-2.4,8.7-6.3l13-40,13.6,26.7c1.6,3.2,4.8,5,8.1,5s2.8-.3,4.1-1c4.5-2.3,6.3-7.8,4-12.2l-21.9-42.9,23.4-71.9c1.6-4.8-1.1-9.9-5.8-11.5h0Z"/>
    <path d="M267,317.1c-4.8,1.6-7.4,6.7-5.8,11.5l23.4,71.9-21.9,42.9c-2.3,4.5-.5,10,4,12.2,1.3.7,2.7,1,4.1,1,3.3,0,6.5-1.8,8.1-5l13.6-26.7,13,40c1.2,3.9,4.8,6.3,8.7,6.3s1.9-.1,2.8-.5c4.8-1.6,7.4-6.7,5.8-11.5l-13-40,26.7,13.6c4.5,2.3,10,.5,12.2-4s.5-10-4-12.2l-42.9-21.9-23.4-71.9c-1.5-4.8-6.7-7.4-11.5-5.8h0Z"/>
    <path d="M418.2,345.6c-.8-5-5.4-8.4-10.4-7.6l-47.6,7.5-62.4-45.3c-4.1-3-9.8-2-12.7,2-3,4.1-2.1,9.8,2,12.7l62.4,45.4,7.5,47.6c.7,4.5,4.6,7.7,9,7.7s1,0,1.4-.1c5-.8,8.4-5.4,7.6-10.4l-4.7-29.6,34,24.7c1.6,1.2,3.5,1.7,5.3,1.7,2.8,0,5.6-1.3,7.4-3.7,3-4.1,2.1-9.8-2-12.7l-34-24.7,29.6-4.7c5-.8,8.4-5.5,7.6-10.4h0Z"/>
    <path d="M63.8,289.5h42.1l-21.2,21.2c-3.6,3.6-3.6,9.3,0,12.9,1.8,1.8,4.1,2.7,6.4,2.7s4.7-.9,6.4-2.7l34.1-34.1h246.8l34.1,34.1c1.8,1.8,4.1,2.7,6.4,2.7s4.7-.9,6.4-2.7c3.6-3.6,3.6-9.3,0-12.9l-21.2-21.2h42.1c5,0,9.1-4.1,9.1-9.1s-4.1-9.1-9.1-9.1H63.8c-5,0-9.1,4.1-9.1,9.1s4.1,9.1,9.1,9.1h0Z"/>
    <path d="M73.1,243.9h46.8c0,5,4.1,9.1,9.1,9.1s9.1-4.1,9.1-9.1c0-65.3,52.8-118.4,117.7-118.4s117.7,53.1,117.7,118.4,4.1,9.1,9.1,9.1,9.1-4.1,9.1-9.1h45.5c5,0,9.1-4.1,9.1-9.1s-4.1-9.1-9.1-9.1h-46.9c-1.5-11.4-4.4-22.3-8.5-32.6l45.7-18.9c4.6-1.9,6.9-7.2,4.9-11.9s-7.3-6.9-11.9-4.9l-46.6,19.3c-5.5-9.7-12.2-18.7-19.8-26.7l36.8-36.8c3.6-3.6,3.6-9.3,0-12.9s-9.3-3.6-12.9,0l-37.3,37.3c-9.4-7.6-19.8-14-31.1-18.9l23.8-47.3c2.3-4.5.5-10-4-12.2-4.5-2.3-10-.5-12.2,4l-24.8,49.2c0,0,0,.1,0,.2-9.1-2.6-18.5-4.2-28.2-4.8v-55.1c0-5-4.1-9.1-9.1-9.1s-9.1,4.1-9.1,9.1v55.1c-9.7.7-19.1,2.4-28.1,5,0-.1,0-.2,0-.3l-23.5-49.2c-2.2-4.5-7.6-6.5-12.1-4.3-4.5,2.2-6.5,7.6-4.3,12.1l22.9,48c-10.8,4.8-20.9,11-30.1,18.4l-36-36c-3.6-3.6-9.3-3.6-12.9,0s-3.6,9.3,0,12.9l35.5,35.5c-7.6,8-14.3,17-19.8,26.7l-46.6-19.3c-4.7-1.9-10,.3-11.9,4.9s.3,10,4.9,11.9l45.7,18.9c-4.1,10.3-7,21.2-8.5,32.6h-48.2c-5,0-9.1,4.1-9.1,9.1s4.1,9.1,9.1,9.1h0Z"/>
  </g>
  <g class="st1">
    <path d="M170.5,371.3c2,0,3.9-.6,5.6-1.9,4-3.1,4.7-8.8,1.6-12.8-49.6-63.2-38.4-155,24.8-204.5,20.3-15.9,44.2-26,69.5-29.5l-16.1,31.1c-2.3,4.5-.6,10,3.9,12.3,1.3.7,2.8,1,4.2,1,3.3,0,6.5-1.8,8.1-4.9l29.2-56.6-56.6-29.2c-4.5-2.3-10-.6-12.3,3.9s-.6,10,3.9,12.3l25.8,13.3c-25.8,4.8-50.1,15.7-71,32.1-71.1,55.7-83.7,159-27.9,230.1,1.8,2.3,4.5,3.5,7.2,3.5h0Z"/>
    <path d="M236.4,185.1c-5,.7-8.4,5.3-7.7,10.3.7,5,5.3,8.4,10.3,7.7,38.5-5.5,76.9,4.4,108,27.8,31.1,23.4,51.3,57.5,56.7,96,3.6,25.5.4,51.3-9.2,75l-18.9-29.5c-2.7-4.2-8.4-5.5-12.6-2.7s-5.5,8.3-2.7,12.6l34.4,53.6,53.6-34.4c4.2-2.7,5.5-8.3,2.7-12.6-2.7-4.2-8.4-5.5-12.6-2.7l-24.5,15.7c8.7-24.7,11.4-51.3,7.7-77.5-6.2-43.3-28.8-81.7-63.8-108s-78.2-37.4-121.5-31.2h0Z"/>
    <path d="M69.6,421c.1,0,.3,0,.4,0,5-.2,8.9-4.5,8.7-9.5l-1.4-29.1c17.1,19.9,38.7,35.5,63.3,45.4,19.8,8,40.5,11.9,61.2,11.9s43.6-4.4,64.2-13.2c40.3-17.2,71.4-49,87.8-89.6,1.9-4.7-.4-10-5-11.8-4.7-1.9-10,.4-11.8,5-14.5,36.1-42.2,64.4-78,79.6s-75.4,15.7-111.5,1.1c-23.9-9.6-44.6-25.3-60.3-45.4l35-1.6c5-.2,8.9-4.5,8.7-9.5s-4.4-8.7-9.5-8.7l-63.7,3,3,63.7c.2,4.9,4.2,8.7,9.1,8.7h0Z"/>
  </g>
  <g class="st1">
    <path d="M136.7,184.6c2.3,0,4.7-.9,6.4-2.7l54.6-54.6c3.6-3.6,3.6-9.3,0-12.9s-9.3-3.6-12.9,0l-54.6,54.6c-3.6,3.6-3.6,9.3,0,12.9,1.8,1.8,4.1,2.7,6.4,2.7Z"/>
    <path d="M230.4,127.3c1.8,1.8,4.1,2.7,6.4,2.7s4.7-.9,6.4-2.7c3.6-3.6,3.6-9.3,0-12.9l-54.6-54.6c-3.6-3.6-9.3-3.6-12.9,0s-3.6,9.3,0,12.9l54.6,54.6Z"/>
    <path d="M275.9,114.4l-54.6,54.6c-3.6,3.6-3.6,9.3,0,12.9s4.1,2.7,6.4,2.7,4.7-.9,6.4-2.7l54.6-54.6c3.6-3.6,3.6-9.3,0-12.9-3.6-3.6-9.3-3.6-12.9,0h0Z"/>
    <path d="M321.4,127.3c1.8,1.8,4.1,2.7,6.4,2.7s4.7-.9,6.4-2.7c3.6-3.6,3.6-9.3,0-12.9l-54.6-54.6c-3.6-3.6-9.3-3.6-12.9,0s-3.6,9.3,0,12.9l54.6,54.6Z"/>
    <path d="M312.3,181.9c1.8,1.8,4.1,2.7,6.4,2.7s4.7-.9,6.4-2.7l54.6-54.6c3.6-3.6,3.6-9.3,0-12.9s-9.3-3.6-12.9,0l-54.6,54.6c-3.6,3.6-3.6,9.3,0,12.9Z"/>
    <path d="M139.3,236.6c1.8,1.8,4.1,2.7,6.4,2.7s4.7-.9,6.4-2.7c3.6-3.6,3.6-9.3,0-12.9l-54.6-54.6c-3.6-3.6-9.3-3.6-12.9,0s-3.6,9.3,0,12.9l54.6,54.6Z"/>
    <path d="M130.2,291.2c1.8,1.8,4.1,2.7,6.4,2.7s4.7-.9,6.4-2.7l54.6-54.6c3.6-3.6,3.6-9.3,0-12.9s-9.3-3.6-12.9,0l-54.6,54.6c-3.6,3.6-3.6,9.3,0,12.9h0Z"/>
    <path d="M175.7,169.1c-3.6,3.6-3.6,9.3,0,12.9l54.6,54.6c1.8,1.8,4.1,2.7,6.4,2.7s4.7-.9,6.4-2.7c3.6-3.6,3.6-9.3,0-12.9l-54.6-54.6c-3.6-3.6-9.3-3.6-12.9,0h0Z"/>
    <path d="M288.8,223.7c-3.6-3.6-9.3-3.6-12.9,0l-54.6,54.6c-3.6,3.6-3.6,9.3,0,12.9,1.8,1.8,4.1,2.7,6.4,2.7s4.7-.9,6.4-2.7l54.6-54.6c3.6-3.6,3.6-9.3,0-12.9h0Z"/>
    <path d="M279.7,169.1c-3.6-3.6-9.3-3.6-12.9,0s-3.6,9.3,0,12.9l54.6,54.6c1.8,1.8,4.1,2.7,6.4,2.7s4.7-.9,6.4-2.7c3.6-3.6,3.6-9.3,0-12.9l-54.6-54.6Z"/>
    <path d="M367,223.7l-54.6,54.6c-3.6,3.6-3.6,9.3,0,12.9s4.1,2.7,6.4,2.7,4.7-.9,6.4-2.7l54.6-54.6c3.6-3.6,3.6-9.3,0-12.9-3.6-3.6-9.3-3.6-12.9,0h0Z"/>
    <path d="M357.8,169.1c-3.6,3.6-3.6,9.3,0,12.9l54.6,54.6c1.8,1.8,4.1,2.7,6.4,2.7s4.7-.9,6.4-2.7c3.6-3.6,3.6-9.3,0-12.9l-54.6-54.6c-3.6-3.6-9.3-3.6-12.9,0h0Z"/>
    <path d="M139.3,345.8c1.8,1.8,4.1,2.7,6.4,2.7s4.7-.9,6.4-2.7c3.6-3.6,3.6-9.3,0-12.9l-54.6-54.6c-3.6-3.6-9.3-3.6-12.9,0s-3.6,9.3,0,12.9l54.6,54.6Z"/>
    <path d="M130.2,400.5c1.8,1.8,4.1,2.7,6.4,2.7s4.7-.9,6.4-2.7l54.6-54.6c3.6-3.6,3.6-9.3,0-12.9s-9.3-3.6-12.9,0l-54.6,54.6c-3.6,3.6-3.6,9.3,0,12.9h0Z"/>
    <path d="M230.4,345.8c1.8,1.8,4.1,2.7,6.4,2.7s4.7-.9,6.4-2.7c3.6-3.6,3.6-9.3,0-12.9l-54.6-54.6c-3.6-3.6-9.3-3.6-12.9,0s-3.6,9.3,0,12.9l54.6,54.6Z"/>
    <path d="M288.8,333c-3.6-3.6-9.3-3.6-12.9,0l-54.6,54.6c-3.6,3.6-3.6,9.3,0,12.9,1.8,1.8,4.1,2.7,6.4,2.7s4.7-.9,6.4-2.7l54.6-54.6c3.6-3.6,3.6-9.3,0-12.9h0Z"/>
    <path d="M321.4,345.8c1.8,1.8,4.1,2.7,6.4,2.7s4.7-.9,6.4-2.7c3.6-3.6,3.6-9.3,0-12.9l-54.6-54.6c-3.6-3.6-9.3-3.6-12.9,0s-3.6,9.3,0,12.9l54.6,54.6Z"/>
    <path d="M379.8,333c-3.6-3.6-9.3-3.6-12.9,0l-54.6,54.6c-3.6,3.6-3.6,9.3,0,12.9s4.1,2.7,6.4,2.7,4.7-.9,6.4-2.7l54.6-54.6c3.5-3.6,3.5-9.3,0-12.9Z"/>
    <path d="M418.9,348.5c2.3,0,4.7-.9,6.4-2.7,3.6-3.6,3.6-9.3,0-12.9l-54.6-54.6c-3.6-3.6-9.3-3.6-12.9,0s-3.6,9.3,0,12.9l54.6,54.6c1.8,1.8,4.1,2.7,6.4,2.7Z"/>
    <path d="M175.7,387.6c-3.6,3.6-3.6,9.3,0,12.9l54.6,54.6c1.8,1.8,4.1,2.7,6.4,2.7s4.7-.9,6.4-2.7c3.6-3.6,3.6-9.3,0-12.9l-54.6-54.6c-3.6-3.6-9.3-3.6-12.9,0h0Z"/>
    <path d="M321.4,455.1c1.8,1.8,4.1,2.7,6.4,2.7s4.7-.9,6.4-2.7c3.6-3.6,3.6-9.3,0-12.9l-54.6-54.6c-3.6-3.6-9.3-3.6-12.9,0s-3.6,9.3,0,12.9l54.6,54.6Z"/>
  </g>
  <g class="st1">
    <path d="M75.3,418.5c18.6,25.4,43.8,33.4,68.8,22.4,7.7,13.1,20.4,24.4,41.2,24.4s14.8-1.3,23.7-4.2c30.5-10,45.3-29.8,42.6-56.3,25.5-5.9,39.3-26.1,39.3-57.7h-18.2c0,34.4-18.5,39.9-32.4,41.1-2.7.2-5.1,1.6-6.6,3.8s-2.1,4.9-1.5,7.5c3.4,13.9,4.1,33.5-28.9,44.3-24,7.8-38,2.2-46.9-18.8-1-2.4-3.1-4.3-5.6-5.1-2.5-.8-5.3-.5-7.5.9-26.3,16.3-44.7-1.2-53.3-13-13.9-19.1-12.1-35.8,5.6-51.2,2-1.7,3.2-4.3,3.1-6.9,0-2.7-1.2-5.2-3.2-6.9-24.5-20.7-14.4-42.7-6.2-54,8.1-11.2,25.6-27.5,52.6-11.2,2.3,1.4,5,1.7,7.6.8,2.5-.8,4.6-2.7,5.6-5.2,2.9-7.1,6.5-12.7,10.7-16.7l-12.5-13.3c-4.1,3.9-7.7,8.6-10.8,14.1-29.5-12.8-54.1,1.6-67.9,20.7-14,19.3-19.9,47.5,2.1,71.7-18.1,20.3-18.7,44.9-1.3,68.7h0Z"/>
    <path d="M133.8,322.1c-7.6,10.5-10.6,23.2-8.6,36s8.9,23.9,19.4,31.5c8.3,6,18.1,9.2,28.2,9.2s5.2-.2,7.8-.6c12.7-2,23.9-8.9,31.5-19.4,7.6-10.5,10.6-23.2,8.6-36s-8.9-23.9-19.4-31.5c-10.5-7.6-23.2-10.6-36-8.6-12.7,2-23.9,8.9-31.5,19.4h0ZM148.6,332.7c4.7-6.5,11.7-10.8,19.6-12.1,1.6-.3,3.2-.4,4.8-.4,6.3,0,12.4,2,17.6,5.7h0c6.5,4.7,10.8,11.7,12.1,19.6,1.3,7.9-.6,15.9-5.3,22.4-4.7,6.5-11.7,10.8-19.6,12.1-7.9,1.2-15.9-.6-22.4-5.3-6.5-4.7-10.8-11.7-12.1-19.6s.6-15.9,5.3-22.4h0Z"/>
    <path d="M167.7,224.3c10.1,37.6,35.9,57.7,69.9,55.3,3.5,24.7,18.4,50.5,64.7,52.9,2.2.1,4.4.2,6.5.2,35.9,0,59.2-16.4,66.7-46.9,32.1,5.4,57.3-11.4,71.3-47.9,16.9-43.9-1.2-68.2-22.8-81.4,15.4-29.8,7.4-61.1-22.5-85.3h0c-28.6-23.2-59.3-23.3-85.4-.8-24-24.9-56-27.9-87.1-7.6-24.6,16-43.8,45.9-28.2,83.7-31,14.8-42.7,42.1-33.1,77.8h0ZM239,78.1c15.1-9.8,44.2-21.4,69.4,11.1,1.6,2.1,4.1,3.4,6.8,3.5,2.6,0,5.2-.9,7.1-2.8,21.1-22.4,44-23.9,68-4.5h0c14.7,11.9,36,36.8,13.8,69.5-1.5,2.2-2,4.9-1.2,7.5.7,2.6,2.5,4.7,4.9,5.8,26.9,12.7,34,32.8,22.4,63.1-12.2,31.8-31,42.9-59,34.7-2.5-.7-5.3-.3-7.5,1.1-2.2,1.5-3.7,3.8-4,6.5-3.7,29.1-22,42.3-56,40.7-32.5-1.7-47.4-15.7-48.3-45.3,0-2.7-1.3-5.1-3.4-6.8-1.6-1.3-3.6-2-5.7-2s-1.1,0-1.7.2c-39.7,7.5-53.9-22.4-58.9-40.8-8-29.9,2.1-49.4,31-59.8,2.5-.9,4.5-2.8,5.4-5.3,1-2.5.8-5.3-.5-7.6-20.8-38.1,5.5-60.7,17.7-68.7h0Z"/>
    <path d="M68.3,255.4l14.7-10.8c-11.6-15.9-10.2-29.3,4.6-42.1,2-1.7,3.2-4.3,3.1-6.9,0-2.7-1.2-5.2-3.2-6.9-20.2-17-11.9-35.2-5.2-44.6,6.7-9.2,21.1-22.7,43.4-9.3,2.3,1.4,5.1,1.7,7.6.8,2.5-.8,4.6-2.7,5.6-5.2,7.4-18.2,20.1-24.1,38.9-18.1l5.6-17.3c-24.7-7.9-45-.7-57,19.7-25.5-10.5-46.7,2.1-58.7,18.7-12.1,16.8-17.3,41.2,1.2,62.3-15.2,17.7-15.5,39.1-.4,59.7h0Z"/>
    <path d="M310.1,247.5c10.8,0,21.8-3,31.5-9.3,13-8.4,21.9-21.5,25.2-36.6s.3-30.7-8.1-43.7c-17.4-26.9-53.5-34.5-80.3-17.1-26.8,17.4-34.5,53.5-17.1,80.3,11.1,17.1,29.8,26.4,48.8,26.4h0ZM288.3,156c6.7-4.3,14.2-6.4,21.6-6.4,13.1,0,25.9,6.4,33.5,18.1,5.8,8.9,7.8,19.6,5.6,30-2.2,10.4-8.3,19.3-17.3,25.1-18.4,12-43.2,6.7-55.1-11.7-12-18.4-6.7-43.2,11.7-55.2Z"/>
  </g>
  <g class="st1">
    <path d="M218.6,202.8v-47.9c0-5-4.1-9.1-9.1-9.1s-4.5.9-6.2,2.4h-35.6l87.3-87.3,87.3,87.3h-35.6c-1.6-1.5-3.8-2.4-6.2-2.4-5,0-9.1,4.1-9.1,9.1v47.9c0,65.6,41,245.8,173,245.8v-18.2c-116.7,0-154.8-169.3-154.8-227.6v-36.4h54.6c3.7,0,7-2.2,8.4-5.6,1.4-3.4.6-7.3-2-9.9l-109.3-109.3c-3.6-3.6-9.3-3.6-12.9,0l-109.3,109.3c-2.6,2.6-3.4,6.5-2,9.9,1.4,3.4,4.7,5.6,8.4,5.6h54.6v36.4c0,58.3-38.1,227.6-154.8,227.6v18.2c132,0,173-180.2,173-245.8h0Z"/>
    <path d="M201.5,419.8c0,31,24.2,56.1,54.1,56.1s54-25.2,54-56.1-12.9-43.4-25.3-61.9c-8.9-13.2-17.3-25.6-19.8-38.5-.8-4.3-4.6-7.4-8.9-7.4s-8.1,3.1-8.9,7.4c-2.5,12.9-10.9,25.3-19.8,38.5-12.4,18.5-25.3,37.6-25.3,61.9h0ZM255.6,346.5c4,7.5,8.9,14.6,13.6,21.7,11.4,17,22.2,33,22.2,51.7s-16.1,37.9-35.8,37.9-35.9-17-35.9-37.9,10.8-34.7,22.2-51.7c4.7-7,9.6-14.2,13.6-21.7Z"/>
    <path d="M327.9,248.3h136.6v18.2h-136.6v-18.2Z"/>
    <path d="M227.7,248.3h54.6v18.2h-54.6v-18.2Z"/>
    <path d="M45.6,248.3h136.6v18.2H45.6v-18.2Z"/>
  </g>
  <g class="st1">
    <path d="M154.9,157.3c0,13.9,2.8,27.4,8.4,40.1l16.7-7.3c-4.5-10.4-6.8-21.4-6.8-32.8,0-45.2,36.8-81.9,81.9-81.9s81.9,36.8,81.9,81.9-2.3,22.4-6.8,32.8l16.7,7.3c5.5-12.7,8.3-26.1,8.3-40.1,0-55.2-44.9-100.2-100.2-100.2s-100.1,44.9-100.1,100.2h0Z"/>
    <path d="M446.2,257.5c0-26.8-10.4-51.9-29.3-70.8-9.9-9.8-21.4-17.4-34.2-22.4l-6.6,17c10.5,4.1,19.9,10.3,28,18.4,31.9,31.9,31.9,83.9,0,115.9-15.5,15.5-36.1,24-57.9,24v18.2c26.7,0,51.9-10.4,70.8-29.3,18.9-18.9,29.3-44.1,29.3-70.8h0Z"/>
    <path d="M134,181.2l-6.6-17c-12.9,5-24.4,12.6-34.2,22.4-18.9,18.9-29.3,44.1-29.3,70.8s10.4,51.9,29.3,70.8c18.9,18.9,44.1,29.3,70.8,29.3v-18.2c-21.9,0-42.5-8.5-57.9-24-31.9-31.9-31.9-83.9,0-115.9,8.1-8.1,17.5-14.2,28-18.4h0Z"/>
    <path d="M264.1,457.8v-73.4c59.8-5.7,91.1-66.6,91.1-126.9h-18.2c0,49.7-22.9,102.9-72.8,108.7v-81.4h-18.2v81.4c-49.9-5.8-72.8-59-72.8-108.7h-18.2c0,60.3,31.3,121.2,91.1,126.9v73.4h18.2Z"/>
  </g>
  <g class="st1">
    <path d="M45.6,321.2h127.5c42.5,0,57.6,23.4,57.6,43.5s-7.4,23.8-21.4,23.8-16.6-6.9-16.6-14.2,3.3-7.4,7.4-7.4,9.1-4.1,9.1-9.1-4.1-9.1-9.1-9.1c-14.1,0-25.6,11.5-25.6,25.6s16.3,32.4,34.8,32.4,39.6-18,39.6-42-23.4-61.7-75.8-61.7H45.6c-5,0-9.1,4.1-9.1,9.1s4.1,9.1,9.1,9.1h0Z"/>
    <path d="M136.7,275.7h136.6c45.5,0,66.3-29.9,66.3-57.7s-18.8-42-42-42-32.4,14.5-32.4,32.4,11.5,25.6,25.6,25.6,9.1-4.1,9.1-9.1-4.1-9.1-9.1-9.1-7.4-3.3-7.4-7.4c0-7.8,6.4-14.2,14.2-14.2,13.1,0,23.8,10.7,23.8,23.8s-12.6,39.5-48.1,39.5h-136.6c-5,0-9.1,4.1-9.1,9.1s4.1,9.1,9.1,9.1h0Z"/>
    <path d="M82,230.1h91.1c28.7,0,45.1-10.7,53.8-19.7,10.3-10.6,15.6-24.8,15.1-39.9-.8-23.1-19.9-41.1-43.4-40.6-17.9.6-31.9,15.6-31.3,33.5.2,6.9,3.1,13.2,8.1,17.9,5,4.7,11.5,7.1,18.4,6.9,5-.2,9-4.4,8.8-9.4-.2-4.9-4.2-8.8-9.1-8.8h-.3c-2.3,0-3.9-.6-5.3-2-1.5-1.4-2.3-3.2-2.4-5.2-.3-7.8,5.9-14.4,13.7-14.7,13.3-.6,24.1,9.9,24.6,23,.3,10.1-3.2,19.6-10,26.6-8.9,9.2-23,14.1-40.7,14.1h-91.1c-5,0-9.1,4.1-9.1,9.1s4.1,9.1,9.1,9.1Z"/>
    <path d="M364.3,48h18.2v418.8h-18.2V48Z"/>
    <path d="M455.3,48h18.2v418.8h-18.2V48Z"/>
    <path d="M400.7,412.2h18.2v27.3h-18.2v-27.3Z"/>
    <path d="M418.9,357.6h18.2v27.3h-18.2v-27.3Z"/>
    <path d="M400.7,303h18.2v27.3h-18.2v-27.3Z"/>
    <path d="M418.9,248.3h18.2v27.3h-18.2v-27.3Z"/>
    <path d="M400.7,193.7h18.2v27.3h-18.2v-27.3Z"/>
    <path d="M418.9,139.1h18.2v27.3h-18.2v-27.3Z"/>
    <path d="M400.7,84.4h18.2v27.3h-18.2v-27.3Z"/>
  </g>
  <g class="st1">
    <path d="M321.4,55.3l-72.8,72.8,12.9,12.9,66.4-66.4,87.3,87.3h-41.8c-5,0-9.1,4.1-9.1,9.1v91.1h-72.8v-27.3h-18.2v36.4c0,5,4.1,9.1,9.1,9.1h91.1c5,0,9.1-4.1,9.1-9.1v-91.1h54.6c3.7,0,7-2.2,8.4-5.6,1.4-3.4.6-7.3-2-9.9l-109.3-109.3c-3.6-3.5-9.3-3.5-12.9,0h0Z"/>
    <path d="M236.8,271.1v-54.6h45.5c3.7,0,7-2.2,8.4-5.6,1.4-3.4.6-7.3-2-9.9l-91.8-91.8c-3.6-3.6-9.3-3.6-12.9,0l-91.8,91.8c-2.6,2.6-3.4,6.5-2,9.9,1.4,3.4,4.7,5.6,8.4,5.6h47v54.6c0,5,4.1,9.1,9.1,9.1h72.8c5,0,9.1-4.1,9.1-9.1h0ZM218.6,207.4v54.6h-54.6v-54.6c0-5-4.1-9.1-9.1-9.1h-34.2l69.8-69.8,69.8,69.8h-32.6c-5,0-9.1,4.1-9.1,9.1h0Z"/>
    <path d="M154.9,307.5h72.8v18.2h-72.8v-18.2Z"/>
    <path d="M154.9,398.6h72.8v18.2h-72.8v-18.2Z"/>
    <path d="M154.9,444.1h72.8v18.2h-72.8v-18.2Z"/>
    <path d="M282.3,307.5h91.1v18.2h-91.1v-18.2Z"/>
    <path d="M36.5,353h437v18.2H36.5v-18.2Z"/>
    <path d="M282.3,398.6h91.1v18.2h-91.1v-18.2Z"/>
    <path d="M282.3,444.1h91.1v18.2h-91.1v-18.2Z"/>
  </g>
  <g class="st1">
    <path d="M255,457.8c110.4,0,200.3-89.9,200.3-200.3S365.5,57.1,255,57.1,54.7,147,54.7,257.4s89.9,200.3,200.3,200.3ZM255,439.5c-46.9,0-89.6-18-122-47.3L389.9,135.5c29.3,32.3,47.3,75,47.3,122,0,100.4-81.7,182.1-182.1,182.1h0ZM255,75.3c46.9,0,89.6,18,122,47.3L120.2,379.4c-29.3-32.3-47.3-75-47.3-122,0-100.4,81.7-182.1,182.1-182.1h0Z"/>
    <path d="M127.6,225.6c0,18.2,3.7,36.2,10.8,53.2l-24.9,16.6,10.1,15.2,23-15.3c2.5,4.4,5.2,8.8,8.2,13l14.8-10.6c-15.6-21.8-23.8-46.8-23.8-72.1s18.3-68.3,59.2-68.3,59.2,2.2,59.2,45.5h18.2c0-15.6-5-28.1-13-37.8l19.4-19.4-12.9-12.9-20.2,20.2c-13.7-9-31.1-13.4-48.7-13.7l-7.1-21.2-17.3,5.8,5.7,17c-27.1,5.6-47.3,25.1-56,52.9h-22.9v18.2h19.1c-.5,4.4-.8,9-.8,13.7h0Z"/>
    <path d="M273.2,284.8h18.2v18.2h-18.2v-18.2Z"/>
    <path d="M291.5,321.2h18.2v18.2h-18.2v-18.2Z"/>
    <path d="M309.7,284.8h18.2v18.2h-18.2v-18.2Z"/>
    <path d="M381.4,299.8c-3.1-18-13-31.6-25.8-40.2l16.3-24.4-15.2-10.1-17.7,26.5c-6.6-2.1-13.5-3.3-20.3-3.3s-6.5-1.7-12.5-6.5l-11.4,14.2c6,4.8,15,10.5,23.9,10.5,22.6,0,45.5,15.6,45.5,45.5s-24.5,54.6-54.6,54.6-74.1-11.8-103.9-33.2l-10.6,14.8c6.3,4.5,12.9,8.5,19.7,12.2l-12.9,19.3,15.2,10.1,14.2-21.4c15.4,6.6,31.6,11.4,48.3,14l-5.9,17.7,17.3,5.8,7.2-21.5c3.8.2,7.7.5,11.5.5,37.9,0,69.1-29.1,72.5-66.2l21.4-7.1-5.8-17.3-16.4,5.5Z"/>
    <path d="M209.5,184.6c-20.1,0-36.4,16.3-36.4,36.4s16.3,36.4,36.4,36.4v-18.2c-10,0-18.2-8.2-18.2-18.2s8.2-18.2,18.2-18.2,18.2,8.2,18.2,18.2h18.2c0-20.1-16.3-36.4-36.4-36.4h0Z"/>
  </g>
  <g class="st1">
    <path d="M238.7,83.5l-49.6,132.2c-1.1,2.8-.6,6,1.1,8.5s4.6,3.9,7.7,3.8l27.2-.9-36,96c-1.1,3.1-.6,6.5,1.5,9,2.1,2.5,5.3,3.8,8.5,3.2l33.3-5.6-35,83.8c-1.2,2.8-.9,6,.8,8.6s4.5,4.1,7.6,4.1h16.5c2.6,0,5.1-1.1,6.8-3.1l132.2-148.6c2.5-2.8,3-6.9,1.3-10.3-1.8-3.4-5.4-5.3-9.2-4.8l-46,5.5,86.9-97.8c2.5-2.8,3-6.9,1.3-10.3-1.8-3.4-5.4-5.2-9.1-4.8l-55.7,6.6,56.3-92c1.9-3.1,1.8-7-.3-9.9-2-3-5.6-4.5-9.2-3.8l-132.2,24.8c-3.1.6-5.7,2.8-6.9,5.8h0ZM360.9,74.7l-55.4,90.6c-1.8,3-1.8,6.7.1,9.7,1.9,2.9,5.3,4.5,8.7,4.1l50.5-6-86.9,97.8c-2.5,2.8-3,6.9-1.3,10.3,1.8,3.4,5.4,5.3,9.2,4.8l46-5.5-111.2,125,35-83.9c1.3-3.1.8-6.6-1.3-9.2-1.7-2.2-4.4-3.4-7.1-3.4s-1,0-1.5.1l-34,5.7,35.2-93.9c1.1-2.8.6-6-1.1-8.5s-4.5-3.9-7.7-3.8l-27.2.9,43-114.7,107-20.1Z"/>
    <path d="M139.1,462.1l41.3-99.2c1.3-3.1.8-6.6-1.3-9.2s-5.4-3.9-8.6-3.3l-34,5.7,35.2-93.9c1.1-2.8.6-6-1.1-8.5s-4.5-3.9-7.7-3.8l-27.2.9,44.8-119.5-17-6.4-49.6,132.2c-1.1,2.8-.6,6,1.1,8.5s4.5,3.9,7.7,3.8l27.2-.9-36,96c-1.1,3-.6,6.5,1.5,9s5.3,3.7,8.5,3.2l33.4-5.6-35,84,16.8,7Z"/>
  </g>
  <g class="st1">
    <path d="M255,366.7c35.1,0,63.7-28.6,63.7-63.7s-9.9-41.3-27.3-52.5V75.3c0-20.1-16.3-36.4-36.4-36.4s-36.4,16.3-36.4,36.4v175.1c-17.4,11.2-27.3,30-27.3,52.5,0,35.1,28.6,63.7,63.7,63.7h0ZM231.9,263.8c3-1.6,4.9-4.7,4.9-8.1V75.3c0-10,8.2-18.2,18.2-18.2s18.2,8.2,18.2,18.2v180.4c0,3.4,1.9,6.5,4.9,8.1,14.4,7.5,22.4,21.4,22.4,39.2s-20.4,45.5-45.5,45.5-45.5-20.4-45.5-45.5c0-17.8,8-31.7,22.4-39.2h0Z"/>
    <path d="M173.1,93.6h36.4v18.2h-36.4v-18.2Z"/>
    <path d="M173.1,139.1h36.4v18.2h-36.4v-18.2Z"/>
    <path d="M173.1,184.6h36.4v18.2h-36.4v-18.2Z"/>
    <path d="M361.2,166.4h30.4v-18.2h-63.7v63.7h18.2v-34c39.6,28.9,63.7,75.5,63.7,125.1,0,85.4-69.4,154.8-154.8,154.8s-35.1-3-51.7-8.8l-6.1,17.2c18.5,6.6,37.9,9.9,57.7,9.9,95.4,0,173-77.6,173-173s-25.1-104.1-66.9-136.6h0Z"/>
    <path d="M128.9,421.3h-28.7v18.2h63.7v-63.7h-18.2v36.7c-29.1-28.9-45.5-68-45.5-109.6s16.9-82.3,47.7-111.8l-12.6-13.1c-34.4,32.9-53.3,77.3-53.3,124.9,0,44.5,16.9,86.5,46.9,118.4h0Z"/>
  </g>
  <g class="st1">
    <path d="M129,354.4c2.1,14.2,15.7,26,31,26h37c11.6,0,26,0,39.5-3.2l-4.2-17.7c-10.6,2.5-21.8,2.7-35.3,2.7h-37c-7,0-13.1-6.4-13.1-11.7s-.9-4.5-2.4-6.2l-5-5.3c-21.6-23-66.5-70.8-66.5-112.8v-111.8c0-8.9,5.5-16.7,13.8-19.4l69-23.1c8.6-2.9,17.9.4,22.9,7.8l12.5,20.2c.4.6.3,2.9.3,4.7v10.6c0,8.6-3.3,10.2-9.2,10.2h-63.7v18.2h18.2v23.3c0,13.4,16.8,30.3,27.8,39.9-4,10.6-6.2,22-6.2,34h18.2c0-41.2,31.4-75.1,71.5-79.2,1.4,10,4.3,19.7,8.8,28.8l16.3-8.1c-5.2-10.5-7.9-21.8-7.9-33.6,0-41.7,34.1-75.7,75.9-75.7s75.9,33.9,75.9,75.7-34.1,75.7-75.9,75.7-17.2-1.5-25.4-4.3l-6.1,17.2c10.1,3.5,20.6,5.4,31.4,5.4s4.2-.2,6.3-.3c-4.7,23-14.7,44.7-29.2,63.3l14.4,11.2c17.7-22.7,29.3-49.5,33.9-77.8,39.7-11,68.9-47.3,68.9-90.3s-42.2-93.9-94.1-93.9-91.1,39.3-93.9,88.7c-31.5,2.8-58.6,20.7-74.4,46.3-9.9-9.4-17.8-19.1-17.9-22.8v-23.3h27.2c16.9,0,27.4-10.9,27.4-28.4v-10.1c.1-4.2.3-9.9-3.1-15l-12.5-20.2c-9.7-14.6-27.4-20.7-43.9-15.2l-69,23.1c-15.7,5.2-26.2,20-26.2,36.7v111.8c0,49.3,48.3,100.6,71.5,125.3l2.7,2.9Z"/>
    <path d="M346.1,406.2c0-24.3-12.9-43.4-25.3-61.9-8.9-13.2-17.3-25.6-19.8-38.5-.8-4.3-4.6-7.4-8.9-7.4s-8.1,3.1-8.9,7.4c-2.5,12.9-10.9,25.3-19.8,38.5-12.5,18.5-25.3,37.6-25.3,61.9s24.2,56.1,54.1,56.1,54.1-25.2,54.1-56.1h0ZM256.2,406.2c0-18.7,10.8-34.7,22.2-51.7,4.7-7,9.6-14.2,13.6-21.7,4,7.5,8.9,14.6,13.6,21.7,11.4,17,22.2,33,22.2,51.7s-16.1,37.9-35.9,37.9-35.9-17-35.9-37.9Z"/>
    <path d="M455.3,342.2c0-20.2-11.1-36.7-20.8-51.2-7.1-10.6-13.8-20.5-15.8-30.7-.8-4.3-4.6-7.4-8.9-7.4s-8.1,3.1-8.9,7.4c-2,10.1-8.7,20.1-15.8,30.7-9.8,14.5-20.8,31-20.8,51.2s20.4,47.3,45.5,47.3,45.5-21.2,45.5-47.3h0ZM382.5,342.2c0-14.7,8.6-27.5,17.7-41.1,3.3-4.9,6.6-9.9,9.6-15,3,5.1,6.3,10.1,9.6,15,9.1,13.6,17.7,26.4,17.7,41.1s-12.3,29.1-27.3,29.1-27.3-13.1-27.3-29.1h0Z"/>
  </g>
  <g class="st1">
    <path d="M255,303c-88.6,0-171.8,47.1-217.2,122.8l15.6,9.3c42.1-70.3,119.4-113.9,201.6-113.9s159.5,43.7,201.6,113.9l15.6-9.3c-45.4-75.7-128.6-122.8-217.2-122.8Z"/>
    <path d="M53.4,79.8l-15.6,9.3c45.4,75.7,128.6,122.8,217.2,122.8s171.8-47.1,217.2-122.8l-15.6-9.3c-42.1,70.3-119.4,113.9-201.6,113.9-82.2,0-159.5-43.7-201.6-113.9Z"/>
    <path d="M425.4,205.5l-12.9,12.9,30,30H67.6l30-30-12.9-12.9-45.5,45.5c-3.6,3.6-3.6,9.3,0,12.9l45.5,45.5,12.9-12.9-30-30h374.9l-30,30,12.9,12.9,45.5-45.5c3.6-3.6,3.6-9.3,0-12.9l-45.5-45.5Z"/>
  </g>
  <g class="st1">
    <path d="M121,271.1c1.7,2.9,4.8,4.6,7.9,4.6s3.1-.4,4.5-1.2l44.1-25.4-7.6,28.5c-1.3,4.9,1.6,9.9,6.4,11.2.8.2,1.6.3,2.4.3,4,0,7.7-2.7,8.8-6.7l12.4-46.1,46.2-26.6v53.3l-33.8,33.8c-3.6,3.6-3.6,9.3,0,12.9s9.3,3.6,12.9,0l20.9-20.9v50.9c0,5,4.1,9.1,9.1,9.1s9.1-4.1,9.1-9.1v-50.9l20.9,20.9c1.8,1.8,4.1,2.7,6.4,2.7s4.7-.9,6.4-2.7c3.6-3.6,3.6-9.3,0-12.9l-33.8-33.8v-53.3l46.2,26.6,12.4,46.1c1.1,4.1,4.8,6.7,8.8,6.7s1.6-.1,2.4-.3c4.9-1.3,7.7-6.3,6.4-11.2l-7.6-28.5,44.1,25.4c1.4.8,3,1.2,4.5,1.2,3.1,0,6.2-1.6,7.9-4.6,2.5-4.4,1-9.9-3.3-12.4l-44-25.4,28.5-7.6c4.9-1.3,7.7-6.3,6.4-11.2-1.3-4.9-6.3-7.7-11.2-6.4l-46.1,12.3-46.2-26.6,46.2-26.6,46.1,12.3c.8.2,1.6.3,2.4.3,4,0,7.7-2.7,8.8-6.7,1.3-4.9-1.6-9.9-6.4-11.2l-28.5-7.6,44-25.4c4.4-2.5,5.8-8.1,3.3-12.4-2.5-4.4-8.1-5.8-12.4-3.3l-44.1,25.4,7.6-28.5c1.3-4.9-1.6-9.9-6.4-11.2s-9.8,1.6-11.2,6.4l-12.4,46.1-46.2,26.6v-53.3l33.8-33.8c3.6-3.6,3.6-9.3,0-12.9s-9.3-3.6-12.9,0l-20.9,20.9v-50.8c0-5-4.1-9.1-9.1-9.1s-9.1,4.1-9.1,9.1v50.9l-20.9-20.9c-3.6-3.6-9.3-3.6-12.9,0s-3.6,9.3,0,12.9l33.8,33.8v53.3l-46.2-26.6-12.4-46.1c-1.3-4.9-6.3-7.7-11.2-6.4-4.9,1.3-7.7,6.3-6.4,11.2l7.6,28.5-44.1-25.4c-4.4-2.5-9.9-1-12.4,3.3-2.5,4.4-1,9.9,3.3,12.4l44,25.4-28.5,7.6c-4.9,1.3-7.7,6.3-6.4,11.2,1.1,4.1,4.8,6.7,8.8,6.7s1.6-.1,2.4-.3l46.1-12.3,46.2,26.6-46.2,26.6-46.1-12.3c-4.9-1.3-9.9,1.6-11.2,6.4s1.6,9.9,6.4,11.2l28.5,7.6-44.1,25.4c-4.4,2.5-5.8,8.1-3.3,12.4h0Z"/>
    <path d="M45.6,366.7h418.8v18.2H45.6v-18.2Z"/>
    <path d="M45.6,457.8h418.8v18.2H45.6v-18.2Z"/>
    <path d="M72.9,403.1h27.3v18.2h-27.3v-18.2Z"/>
    <path d="M127.6,421.3h27.3v18.2h-27.3v-18.2Z"/>
    <path d="M182.2,403.1h27.3v18.2h-27.3v-18.2Z"/>
    <path d="M236.8,421.3h27.3v18.2h-27.3v-18.2Z"/>
    <path d="M291.5,403.1h27.3v18.2h-27.3v-18.2Z"/>
    <path d="M346.1,421.3h27.3v18.2h-27.3v-18.2Z"/>
    <path d="M400.7,403.1h27.3v18.2h-27.3v-18.2Z"/>
  </g>
  <g class="st1">
    <path d="M467.4,279.1c-2.2-2.2-5.4-3.2-8.4-2.5-13.8,3-29.9,2.4-47.9-1.4,14.7-17.8,26.1-37.9,31.4-60.4.7-3-.2-6.2-2.4-8.5-2.2-2.2-5.4-3.2-8.4-2.5-13.8,3-29.9,2.4-47.9-1.4,14.7-17.8,26.1-37.9,31.4-60.4.7-3-.2-6.2-2.4-8.5-2.2-2.2-5.4-3.2-8.4-2.5-69.8,15.1-171.6-61.4-172.6-62.1-3-2.3-7.1-2.5-10.3-.5L44.4,176.8c-2.7,1.7-4.4,4.6-4.4,7.8s1.6,6.1,4.4,7.8l60.4,37-33.1,20.3c-2.7,1.7-4.4,4.6-4.4,7.8s1.6,6.1,4.4,7.8l60.4,37-33.1,20.3c-2.7,1.7-4.4,4.6-4.4,7.8s1.6,6.1,4.4,7.8l177.1,108.6c1.5.9,3.1,1.3,4.8,1.3s2-.2,2.9-.5c6.6-2.2,161.3-55.8,186-160,.7-3-.2-6.2-2.4-8.5h0ZM225.8,86.9c20.9,15,101,68.3,167.6,63.8-29.1,77.8-143.4,124-166.2,132.5l-160.7-98.6,159.2-97.7ZM122.2,240.1l99.3,60.9c1.5.9,3.1,1.3,4.8,1.3s2-.2,2.9-.5c4.7-1.6,86.1-29.8,140.6-84.2,18.5,4.9,35.7,7,51,5.9-29.1,77.8-143.4,124-166.2,132.5l-160.7-98.6,28.3-17.4ZM281.9,428.9l-160.7-98.6,28.3-17.4,99.3,60.9c1.5.9,3.1,1.3,4.8,1.3s2-.2,2.9-.5c4.7-1.6,86.1-29.8,140.6-84.2,18.5,4.9,35.7,7,51,5.9-29.1,77.8-143.4,124-166.2,132.5Z"/>
  </g>
  <g class="st1">
    <path d="M144.3,185.7c-19.7,18.2-29.9,37.8-30.3,58.4-.7,37.6,30.9,68.8,54,91.6l4.3-4.3,8.5-8.7c-20.7-20.5-49.1-48.5-48.6-78.4.3-14.9,7.6-29.1,22.3-43.3,1.3-.4,2.5-1.1,3.5-2,19.7-18.2,29.9-37.8,30.3-58.3.7-37.4-30.8-68.5-54.1-91.5l-12.5,13.3c20.6,20.4,48.9,48.3,48.3,77.9-.3,14.8-7.6,29-22.3,43.2-1.3.4-2.5,1.1-3.5,2h0Z"/>
    <path d="M174.5,329.3l-2.2,2.2-4.2,4.3,6.4-6.5Z"/>
    <path d="M279.8,329.3l-2.3,2.3-4.1,4.2,6.4-6.5Z"/>
    <path d="M249.6,185.7c-19.7,18.2-29.9,37.8-30.3,58.4-.7,37.6,30.9,68.8,54,91.6l4.2-4.2,8.6-8.8c-20.7-20.5-49.1-48.5-48.6-78.4.3-14.9,7.6-29.1,22.3-43.3,1.3-.4,2.5-1.1,3.5-2,19.7-18.2,29.9-37.8,30.3-58.3.6-37.4-30.8-68.5-54.1-91.5l-12.5,13.3c20.6,20.4,48.9,48.3,48.4,77.9-.3,14.9-7.5,29-22.3,43.2-1.3.4-2.5,1.1-3.5,2h0Z"/>
    <path d="M394.2,329.3l-2.2,2.2-4.3,4.3,6.4-6.5Z"/>
    <path d="M364.1,185.7c-19.7,18.2-29.9,37.8-30.3,58.4-.7,37.6,30.9,68.8,54,91.6l4.3-4.3,8.5-8.7c-20.7-20.5-49.1-48.5-48.6-78.4.3-14.9,7.6-29.1,22.3-43.3,1.3-.4,2.5-1.1,3.5-2,19.7-18.2,29.9-37.8,30.3-58.3.7-37.4-30.8-68.5-54.1-91.5l-12.5,13.3c20.6,20.4,48.9,48.3,48.3,77.9-.3,14.8-7.6,29-22.3,43.2-1.3.4-2.5,1.1-3.5,2h0Z"/>
    <path d="M45.6,356.3h418.8v18.2H45.6v-18.2Z"/>
    <path d="M45.6,447.3h418.8v18.2H45.6v-18.2Z"/>
    <path d="M72.9,392.7h27.3v18.2h-27.3v-18.2Z"/>
    <path d="M127.6,410.9h27.3v18.2h-27.3v-18.2Z"/>
    <path d="M182.2,392.7h27.3v18.2h-27.3v-18.2Z"/>
    <path d="M236.8,410.9h27.3v18.2h-27.3v-18.2Z"/>
    <path d="M291.5,392.7h27.3v18.2h-27.3v-18.2Z"/>
    <path d="M346.1,410.9h27.3v18.2h-27.3v-18.2Z"/>
    <path d="M400.7,392.7h27.3v18.2h-27.3v-18.2Z"/>
  </g>
  <g class="st1">
    <path d="M473.8,94.9c-2.7-1.7-6-1.8-8.9-.4-57.9,28.9-95.2,34.5-125.1,38.9-43.2,6.4-70.7,10.6-113.4,74.8-1.2-3.4-2.6-6.8-4.4-9.9-1.3-2.3-3.5-3.9-6.1-4.4-2.6-.5-5.2.1-7.3,1.7-55.5,42.4-94.4,97.6-112.6,159.4l17.5,5.1c16-54.7,49.4-103.8,96.9-142.8,3.7,12.3,3.7,25.8,3.7,31h18.2c0-3,0-8.3-.6-14.7,44.4-72.3,66.7-75.6,110.8-82.2,27.4-4.1,64.1-9.5,117.3-34.2-.8,48.7-7.2,91.2-45.3,135.5-14.1-.7-29.6,2-39.4,5.2l5.6,17.3c12.7-4.1,28.8-5.4,38.9-3.7l.8.7c-12.1,18.5-59.8,64.4-128.7,91.8-6.2-3.7-12.6-6.9-19.7-9.8l-6.9,16.9c8.7,3.6,16.2,7.6,23.6,12.7-30.6,15.4-86.5,28.1-145,10.6l-5.2,17.4c22.4,6.7,44,9.4,63.9,9.4,49.8,0,89.7-16.7,107.7-28.8,2.4-1.6,3.9-4.2,4-7.1s-1-5.6-3.2-7.4c-.6-.5-1.2-.9-1.8-1.4,72-31.8,132.1-88.2,132.5-109.8,0-3.1-1.5-6-4-7.7-1-.7-2.3-1.1-3.4-1.7,40.2-50.8,43.8-100.3,43.8-154.6,0-3.1-1.6-6.1-4.3-7.7h0Z"/>
    <path d="M357.1,205.5c-3.6-3.6-9.3-3.6-12.9,0-56.8,56.6-193.6,170.9-305.3,197.9-4.9,1.2-7.9,6.1-6.7,11,1,4.2,4.7,7,8.8,7s1.4,0,2.2-.3c115.6-27.9,255.8-144.8,313.9-202.7,3.6-3.6,3.6-9.3,0-12.9h0Z"/>
  </g>
  <g>
    <path class="st0" d="M182.2,151.2c0-24.3-12.9-43.4-25.3-61.9-8.9-13.2-17.3-25.6-19.8-38.5-.8-4.3-4.6-7.4-8.9-7.4s-8.1,3.1-8.9,7.4c-2.5,12.9-10.9,25.3-19.8,38.5-12.5,18.5-25.3,37.6-25.3,61.9s24.2,56.1,54.1,56.1,54.1-25.2,54.1-56.1h0ZM92.3,151.2c0-18.7,10.8-34.7,22.2-51.7,4.7-7,9.6-14.2,13.6-21.7,4,7.5,8.9,14.6,13.6,21.7,11.4,17,22.2,33,22.2,51.7s-16.1,37.9-35.9,37.9-35.9-17-35.9-37.9Z"/>
    <path class="st0" d="M428,169.2c0-20.2-11.1-36.7-20.8-51.2-7.1-10.6-13.8-20.5-15.8-30.7-.8-4.3-4.6-7.4-8.9-7.4s-8.1,3.1-8.9,7.4c-2,10.1-8.7,20.1-15.8,30.7-9.8,14.5-20.8,31-20.8,51.2s20.4,47.3,45.5,47.3,45.5-21.2,45.5-47.3ZM355.2,169.2c0-14.7,8.6-27.5,17.7-41.1,3.3-4.9,6.6-9.9,9.6-15,3,5.1,6.3,10.1,9.6,15,9.1,13.6,17.7,26.4,17.7,41.1s-12.3,29.1-27.3,29.1-27.3-13.1-27.3-29.1h0Z"/>
    <path class="st0" d="M329,262c0-33.8-18-62-35.3-89.2-12.7-20-24.8-38.8-28.5-58.2-.8-4.3-4.6-7.4-8.9-7.4s-8.1,3.1-8.9,7.4c-3.8,19.4-16,38.3-29.1,58.3-17.7,27.2-36,55.3-36,89.1s32.5,73.6,74,73.6,72.8-31.6,72.8-73.6h0ZM200.4,262c0-28.4,16.8-54.2,33-79.2,8.1-12.5,16.4-25.3,22.7-38.5,6.1,13.1,14.2,25.8,22.2,38.3,16,25,32.5,50.9,32.5,79.4s-23.5,55.4-54.6,55.4-55.7-23.8-55.7-55.4h0Z"/>
    <path class="st0" d="M45.6,362.2h418.8v18.2H45.6v-18.2Z"/>
    <path class="st0" d="M45.6,453.2h418.8v18.2H45.6v-18.2Z"/>
    <path class="st0" d="M72.9,398.6h27.3v18.2h-27.3v-18.2Z"/>
    <path class="st0" d="M127.6,416.8h27.3v18.2h-27.3v-18.2Z"/>
    <path class="st0" d="M182.2,398.6h27.3v18.2h-27.3v-18.2Z"/>
    <path class="st0" d="M236.8,416.8h27.3v18.2h-27.3v-18.2Z"/>
    <path class="st0" d="M291.5,398.6h27.3v18.2h-27.3v-18.2Z"/>
    <path class="st0" d="M346.1,416.8h27.3v18.2h-27.3v-18.2Z"/>
    <path class="st0" d="M400.7,398.6h27.3v18.2h-27.3v-18.2Z"/>
  </g>
  <g class="st1">
    <path d="M36.5,448.7h437v18.2H36.5v-18.2Z"/>
    <path d="M175.1,197l12.9,12.9,19.8-19.8c8.3,6.2,18.2,10.5,29,12v28h18.2v-28c10.8-1.6,20.7-5.8,29-12l19.9,19.8,12.9-12.9-19.9-19.8c6.2-8.3,10.5-18.2,12-29h28v-18.2h-28c-1.6-10.8-5.8-20.7-12-29l19.8-19.8-12.9-12.9-19.8,19.8c-8.3-6.2-18.2-10.5-29-12v-28h-18.2v28c-10.8,1.6-20.7,5.8-29,12l-19.8-19.8-12.9,12.9,19.8,19.8c-6.2,8.3-10.5,18.2-12,29h-28v18.2h28c1.6,10.8,5.8,20.7,12,29l-19.9,19.8ZM245.9,93.6c25.1,0,45.5,20.4,45.5,45.5s-20.4,45.5-45.5,45.5-45.5-20.4-45.5-45.5,20.4-45.5,45.5-45.5h0Z"/>
    <path d="M464.4,239.2h-45.5v18.2h23.5l-151,151-11.8-11.8-12.9,12.9,18.2,18.2c1.8,1.8,4.1,2.7,6.4,2.7s4.7-.9,6.4-2.7l157.5-157.5v23.5h18.2v-45.5c0-5-4.1-9.1-9.1-9.1h0Z"/>
    <path d="M175.7,318.5l12.9-12.9,27.3,27.3-12.9,12.9-27.3-27.3Z"/>
    <path d="M130.2,273l12.9-12.9,27.3,27.3-12.9,12.9-27.3-27.3Z"/>
    <path d="M382.5,293.9v-45.5c0-5-4.1-9.1-9.1-9.1h-45.5v18.2h23.5l-105.5,105.5-11.8-11.8-12.9,12.9,11.8,11.8-32.6,32.6-11.8-11.8-12.9,12.9,18.2,18.2c1.8,1.8,4.1,2.7,6.4,2.7s4.7-.9,6.4-2.7l39.1-39.1,2.7,2.7,12.9-12.9-2.7-2.7,105.5-105.5v23.5h18.2Z"/>
    <path d="M130.2,364l12.9-12.9,27.3,27.3-12.9,12.9-27.3-27.3Z"/>
    <path d="M84.7,318.5l12.9-12.9,27.3,27.3-12.9,12.9-27.3-27.3Z"/>
    <path d="M39.1,273l12.9-12.9,27.3,27.3-12.9,12.9-27.3-27.3Z"/>
  </g>
  <g class="st1">
    <path d="M459.5,205.6c-45.1,32.6-120.2,86.9-196.6,38.3-3.2-1.6-98.7-75.5-223.1,33.5-4.1,2.9-5,8.6-2,12.7,1.8,2.5,4.6,3.8,7.4,3.8s3.7-.6,5.3-1.7c47.9-34.7,113.2-83.9,199.3-34.9,88,58.9,174.1-3.5,220.4-36.9,4.1-2.9,5-8.6,2-12.7-2.9-4.1-8.6-5-12.7-2Z"/>
    <path d="M154.6,273.9c-.8-4.3-4.6-7.4-8.9-7.4s-8.1,3.1-8.9,7.4c-2,10.1-8.7,20.1-15.8,30.7-9.8,14.5-20.8,31-20.8,51.2s20.4,47.3,45.5,47.3,45.5-21.2,45.5-47.3-11.1-36.7-20.8-51.2c-7.1-10.6-13.8-20.5-15.8-30.7ZM145.6,384.9c-15.1,0-27.3-13.1-27.3-29.1s8.6-27.5,17.7-41.1c3.3-4.9,6.6-9.9,9.6-15,3,5.1,6.3,10.1,9.6,15,9.1,13.6,17.7,26.4,17.7,41.1,0,16-12.2,29.1-27.3,29.1Z"/>
    <path d="M263.8,310.3c-.8-4.3-4.6-7.4-8.9-7.4s-8.1,3.1-8.9,7.4c-2,10.1-8.7,20.1-15.8,30.7-9.8,14.5-20.8,31-20.8,51.2s20.4,47.3,45.5,47.3,45.5-21.2,45.5-47.3-11.1-36.7-20.8-51.2c-7.1-10.6-13.8-20.5-15.8-30.7ZM254.9,421.3c-15.1,0-27.3-13.1-27.3-29.1s8.6-27.5,17.7-41.1c3.3-4.9,6.6-9.9,9.6-15,3,5.1,6.3,10.1,9.6,15,9.1,13.6,17.7,26.4,17.7,41.1s-12.2,29.1-27.3,29.1Z"/>
    <path d="M373.1,337.7c-.8-4.3-4.6-7.4-8.9-7.4s-8.1,3.1-8.9,7.4c-2,10.1-8.7,20.1-15.8,30.7-9.8,14.5-20.8,31-20.8,51.2s20.4,47.3,45.5,47.3,45.5-21.2,45.5-47.3-11.1-36.7-20.8-51.2c-7.1-10.6-13.8-20.5-15.8-30.7h0ZM364.2,448.6c-15.1,0-27.3-13.1-27.3-29.1s8.6-27.5,17.7-41.1c3.3-4.9,6.6-9.9,9.6-15,3,5.1,6.3,10.1,9.6,15,9.1,13.6,17.7,26.4,17.7,41.1s-12.2,29.1-27.3,29.1h0Z"/>
    <path d="M145.6,175.5c5,0,9.1-4.1,9.1-9.1v-87.3l20.9,20.9c1.8,1.8,4.1,2.7,6.4,2.7s4.7-.9,6.4-2.7c3.6-3.6,3.6-9.3,0-12.9l-36.4-36.4c-.8-.8-1.9-1.5-3-2-2.2-.9-4.7-.9-7,0-1.1.5-2.1,1.1-3,2l-36.4,36.4c-3.6,3.6-3.6,9.3,0,12.9s9.3,3.6,12.9,0l20.9-20.9v87.3c0,5,4.1,9.1,9.1,9.1Z"/>
    <path d="M254.9,202.8c5,0,9.1-4.1,9.1-9.1v-87.3l20.9,20.9c1.8,1.8,4.1,2.7,6.4,2.7s4.7-.9,6.4-2.7c3.6-3.6,3.6-9.3,0-12.9l-36.4-36.4c-.8-.8-1.9-1.5-3-2-2.2-.9-4.7-.9-7,0-1.1.5-2.1,1.1-3,2l-36.4,36.4c-3.6,3.6-3.6,9.3,0,12.9s9.3,3.6,12.9,0l20.9-20.9v87.3c0,5,4.1,9.1,9.1,9.1h0Z"/>
    <path d="M364.2,230.1c5,0,9.1-4.1,9.1-9.1v-87.3l20.9,20.9c1.8,1.8,4.1,2.7,6.4,2.7s4.7-.9,6.4-2.7c3.6-3.6,3.6-9.3,0-12.9l-36.4-36.4c-.8-.8-1.9-1.5-3-2-2.2-.9-4.7-.9-7,0-1.1.5-2.1,1.1-3,2l-36.4,36.4c-3.6,3.6-3.6,9.3,0,12.9s9.3,3.6,12.9,0l20.9-20.9v87.3c0,5,4.1,9.1,9.1,9.1h0Z"/>
  </g>
</svg>